<svg xmlns="http://www.w3.org/2000/svg" xmlns:xlink="http://www.w3.org/1999/xlink" width="100" height="100" viewBox="0 0 100 100"><defs><clipPath id="b"><rect width="100" height="100"/></clipPath></defs><g id="a" clip-path="url(#b)"><g transform="translate(200 150)"><path d="M-100-102.9c0,25.022-22.461,52.9-47.481,52.9C-172.475-50-200-77.881-200-102.9c0-24.993,27.525-47.1,52.519-47.1C-122.461-150-100-127.9-100-102.9" transform="translate(0 0)" fill="rgba(35,55,158,0.1)"/></g><g transform="translate(16 24)"><path d="M0,18.335H2.969v.792c.068,8.669.067,17.337.073,26.006a6.1,6.1,0,0,0,.107,1.232A2.791,2.791,0,0,0,5.516,48.6c1.187.094,2.387.021,3.615.021A14.665,14.665,0,0,1,17.153,34.95a8.285,8.285,0,0,1-1.638-7.34,8.092,8.092,0,0,1,3.155-4.667A8.374,8.374,0,0,1,30.14,34.963a14.682,14.682,0,0,1,7.99,13.658c.226.013.436.035.647.035q10.966,0,21.932,0a3.017,3.017,0,0,0,3.307-3.28q.008-14.767,0-29.534c0-.19-.023-.38-.041-.65h-.932q-31.065,0-62.13,0c-.3,0-.914-.031-.914-.031V5.239c.046-.141.1-.279.136-.423A6.083,6.083,0,0,1,4.129.339C4.491.2,4.868.112,5.239,0H61.816a1.871,1.871,0,0,0,.293.117,6.06,6.06,0,0,1,4.633,4.072c.126.342.21.7.313,1.05V46.624c-.156.47-.285.95-.472,1.407a6.2,6.2,0,0,1-6.154,3.8q-26.9,0-53.8,0c-.24,0-.48,0-.719-.019A6.066,6.066,0,0,1,.33,47.667C.2,47.327.109,46.972,0,46.624Zm63.95-6.286c0-1.9,0-3.722,0-5.548,0-2.408-1.157-3.557-3.58-3.557H6.358A3.074,3.074,0,0,0,2.97,6.3c-.005,1.372,0,2.744,0,4.116,0,.537,0,1.074,0,1.634Zm-28.969,36.5c.026-.173.053-.3.063-.428a11.4,11.4,0,0,0-7.415-10.935,1.176,1.176,0,0,0-.725.082,8.49,8.49,0,0,1-6.572-.006,1.4,1.4,0,0,0-.9,0A11.125,11.125,0,0,0,13.026,43.6a10.726,10.726,0,0,0-.786,4.944ZM23.634,34.94a5.27,5.27,0,1,0-3.765-1.535,5.3,5.3,0,0,0,3.765,1.535Z" fill="#23379e"/><path d="M244.409,131.076c0-2.438,0-4.877,0-7.315a1.536,1.536,0,0,1,2.466-1.471q6.634,3.665,13.261,7.343a1.571,1.571,0,0,1,.008,2.944q-6.635,3.663-13.263,7.34a1.54,1.54,0,0,1-2.472-1.46C244.4,136,244.409,133.536,244.409,131.076Zm3.071-4.971v10.009l9.022-5.008Z" transform="translate(-201.728 -100.687)" fill="#23379e"/><path d="M227,37.969V35h2.969v2.969Z" transform="translate(-187.361 -28.888)" fill="#23379e"/><path d="M264.969,37.969H262V35h2.969Z" transform="translate(-216.249 -28.888)" fill="#23379e"/><path d="M299.969,37.969H297V35h2.969Z" transform="translate(-245.137 -28.888)" fill="#23379e"/><path d="M334.969,35v2.969H332V35Z" transform="translate(-274.025 -28.888)" fill="#23379e"/></g></g></svg>