<svg xmlns="http://www.w3.org/2000/svg" xmlns:xlink="http://www.w3.org/1999/xlink" width="100" height="100" viewBox="0 0 100 100"><defs><clipPath id="b"><rect width="100" height="100"/></clipPath></defs><g id="a" clip-path="url(#b)"><g transform="translate(-137.505 -122.376) rotate(-180)"><path d="M-148.431-210.186c8.371,8.007,11.274,20.736,10.894,33.136-.357,12.38-4,24.431-12.367,34.7s-21.476,18.744-35.808,19.873c-14.354,1.15-29.914-5.071-39.29-15.336s-12.568-24.575-12.5-38.864c.045-14.269,3.326-28.5,12.7-36.5s24.847-9.793,39.491-9.033c14.667.739,28.508,4.024,36.879,12.031" transform="translate(0)" fill="rgba(252,175,60,0.15)"/></g><g transform="translate(16.556 15.862)"><g transform="translate(0.006 -0.011)"><path d="M55.861,20c-1.276,0-2.479,0-3.681,0-3,0-4.655-1.658-4.658-4.664,0-3.628-.01-7.256,0-10.884A4.153,4.153,0,0,1,50.862.082a7.313,7.313,0,0,1,1.458-.087q9.243-.008,18.485,0c2.873,0,3.974.756,4.947,3.365,1.048-.094,2.083-.27,3.118-.265a11.412,11.412,0,0,1,10.5,15.922A1.706,1.706,0,0,0,89.34,20.4c.615,1.6,1.188,3.224,1.778,4.837.19.518.347,1.056-.123,1.491a1.315,1.315,0,0,1-1.5.126Q87,25.885,84.468,25a1.625,1.625,0,0,0-1.045,0c-5.692,2.264-11.2.525-14.616-4.619a.932.932,0,0,0-.652-.369q-2.58-.046-5.161,0a1.259,1.259,0,0,0-.763.363q-2.17,2.121-4.3,4.286c-.385.389-.795.681-1.353.456a1.2,1.2,0,0,1-.727-1.3C55.877,22.572,55.861,21.322,55.861,20Zm2.178,1.294.17.07c.963-.969,1.942-1.921,2.881-2.913a1.848,1.848,0,0,1,1.478-.6c2.765.022,5.533-.053,8.3.034a2.423,2.423,0,0,0,2.767-2.728c-.088-3.577-.026-7.158-.026-10.737A2.137,2.137,0,0,0,71.27,2.137q-9.621-.008-19.242,0a2.143,2.143,0,0,0-2.322,2.357q-.005,5.509,0,11.017a2.143,2.143,0,0,0,2.337,2.34c1.557.007,3.114,0,4.671,0,.977.005,1.3.324,1.322,1.29.015.715,0,1.431,0,2.146Zm30.292,2.824c-.5-1.392-.915-2.6-1.364-3.788a1.879,1.879,0,0,1,.085-1.583A9.206,9.206,0,0,0,85.886,8.481c-2.4-2.953-5.639-3.82-9.341-3.031a.813.813,0,0,0-.772.963c.039,3.09.031,6.181.013,9.272a4.221,4.221,0,0,1-3.356,4.229c-.351.077-.716.084-1.15.132.164.225.273.395.4.549A9.2,9.2,0,0,0,82.8,22.98a2.489,2.489,0,0,1,2.246-.086c1.016.431,2.069.775,3.286,1.222Z" transform="translate(-38.663 0.011)" fill="#ffb200"/><path d="M233.195,272.8c-2.416,0-4.834.058-7.249-.014a6.1,6.1,0,0,1-5.86-5.95q-.074-4.566,0-9.134a7.656,7.656,0,0,1,7.622-7.509q5.438-.046,10.876,0a7.61,7.61,0,0,1,7.612,7.29c.116,3.087.108,6.183.022,9.272a6.184,6.184,0,0,1-6.54,6.083c-2.161-.014-4.322,0-6.483,0Zm-1.541-10.384a1.739,1.739,0,0,0-.073-.289c-1.44-3.119-2.876-6.24-4.342-9.347a.732.732,0,0,0-.627-.279,5.169,5.169,0,0,0-4.261,4.491c-.18,3.36-.171,6.737-.063,10.1a3.6,3.6,0,0,0,3.185,3.383v-1.736q0-3.836,0-7.672c0-.509.055-.99.586-1.238.815-.381,1.564.149,1.567,1.129.009,2.976,0,5.952,0,8.928v.744h11.034v-.784c0-2.953-.007-5.905,0-8.858,0-1,.728-1.529,1.551-1.168.563.247.632.75.632,1.285q0,4.324,0,8.649v.759a3.889,3.889,0,0,0,3.218-3.675c.046-3.091.068-6.185-.008-9.276a5.365,5.365,0,0,0-4.867-5.1l-4.6,9.95c1.692.1,1.814.236,1.814,1.856,0,1.116.012,2.232,0,3.348-.012.8-.358,1.179-1.138,1.195q-2.056.042-4.114,0a1.013,1.013,0,0,1-1.135-1.124q-.033-2.057,0-4.115c.011-.746.377-1.081,1.129-1.123l.51-.029Zm1.5-2.044,3.7-7.957H229.45Zm-.927,6.238h1.935v-1.985h-1.935Z" transform="translate(-179.041 -203.542)" fill="#ffb200"/><path d="M13.081,272.9c-2.325,0-4.65.024-6.974-.006A5.983,5.983,0,0,1,.013,266.73q-.015-4.256,0-8.511A7.687,7.687,0,0,1,8,250.282q5.127-.007,10.253,0a7.622,7.622,0,0,1,7.911,7.571c.1,3.113.084,6.233,0,9.347a5.692,5.692,0,0,1-5.826,5.7c-1.208.028-2.417.006-3.626.007Zm7.6-2.223a3.7,3.7,0,0,0,3.34-3.543c.032-3.115.069-6.233-.014-9.346a5.255,5.255,0,0,0-3.291-4.861c-1.7-.783-3.5-.379-5.318-.479.595,2.946,1.186,5.763,1.712,8.592a2,2,0,0,1-.217,1.422,37.4,37.4,0,0,1-2.535,2.874,1.371,1.371,0,0,1-2.024-.032c-.891-.981-1.794-1.952-2.647-2.965a1.449,1.449,0,0,1-.363-.978c.239-1.771.553-3.533.837-5.3.19-1.179.371-2.36.566-3.606-1.014,0-1.918-.011-2.821,0a5.54,5.54,0,0,0-5.749,5.835q-.012,4.185,0,8.37a5.362,5.362,0,0,0,.128,1.174,3.524,3.524,0,0,0,3.458,2.792c0-.457,0-.918,0-1.38,0-2.744-.006-5.487,0-8.231a1.067,1.067,0,0,1,1.523-1.113c.546.228.62.7.619,1.211q0,4.395,0,8.789c0,.268,0,.537,0,.8H18.5V269.9q0-4.325,0-8.649c0-.986.374-1.456,1.114-1.439.718.016,1.061.468,1.064,1.415,0,1.163,0,2.325,0,3.488,0,1.973,0,3.946,0,5.962Zm-7.7-18.362c-.158.246-.215.3-.223.352q-.626,4.064-1.238,8.13a.627.627,0,0,0,.1.447c.505.6,1.035,1.183,1.591,1.811.462-.524.908-.97,1.275-1.474a1.227,1.227,0,0,0,.221-.846c-.333-1.78-.713-3.551-1.08-5.325-.2-.971-.4-1.942-.644-3.1Z" transform="translate(-0.006 -203.633)" fill="#ffb200"/><path d="M26.184,161.709a8.323,8.323,0,1,1,8.305,8.313A8.378,8.378,0,0,1,26.184,161.709Zm8.218,6.139a6.166,6.166,0,1,0-6.071-6.28,6.233,6.233,0,0,0,6.071,6.28Z" transform="translate(-21.306 -124.78)" fill="#ffb200"/><path d="M254.028,153.368a8.328,8.328,0,1,1-8.338,8.277A8.373,8.373,0,0,1,254.028,153.368Zm-.094,14.483a6.165,6.165,0,1,0-6.09-6.19,6.244,6.244,0,0,0,6.09,6.19Z" transform="translate(-199.903 -124.783)" fill="#ffb200"/><path d="M295.776,327.732v1.986" transform="translate(-240.655 -266.652)" fill="#ffb200"/><path d="M110.912,42.88A2.892,2.892,0,0,1,108,39.964a2.923,2.923,0,1,1,2.913,2.916Zm1.017-2.866c-.433-.352-.728-.766-.953-.732-.291.045-.526.449-.785.7.239.247.458.662.724.694S111.467,40.335,111.929,40.014Z" transform="translate(-87.873 -30.129)" fill="#ffb200"/><path d="M152.148,42.951a2.891,2.891,0,1,1,2.066-.849A2.9,2.9,0,0,1,152.148,42.951Zm-1.021-2.912c.448.342.73.724.984.706s.5-.423.755-.658c-.247-.261-.462-.673-.751-.733-.221-.046-.535.352-.988.686Z" transform="translate(-121.405 -30.2)" fill="#ffb200"/><path d="M69.169,42.958a2.915,2.915,0,1,1,2.886-2.937,2.879,2.879,0,0,1-2.886,2.937Zm.984-2.886c-.442-.344-.745-.751-.972-.713-.289.049-.518.459-.772.713.244.243.473.656.738.68S69.7,40.4,70.152,40.072Z" transform="translate(-53.885 -30.207)" fill="#ffb200"/></g></g></g></svg>