<svg xmlns="http://www.w3.org/2000/svg" xmlns:xlink="http://www.w3.org/1999/xlink" width="100" height="100" viewBox="0 0 100 100"><defs><clipPath id="b"><rect width="100" height="100"/></clipPath></defs><g id="a" clip-path="url(#b)"><path d="M-79.741-102.9c0,25.022-25.457,52.9-53.816,52.9-28.327,0-46.184-20.731-46.184-45.753,0-24.993,17.857-54.247,46.184-54.247,28.359,0,53.816,22.1,53.816,47.1" transform="translate(150 -79.741) rotate(-90)" fill="rgba(35,55,158,0.1)"/><g transform="translate(14.635 17.047)"><g transform="translate(0 0)"><path d="M0,97.037a1.153,1.153,0,0,0,.088-.184c.934-3.349,2.9-4.866,6.357-4.842,2.983.021,1.983-.38,4.1,1.661.67.646,1.25,1.386,1.9,2.12,1.279-1.2,2.351-2.256,3.492-3.235a2.258,2.258,0,0,1,1.326-.524,15.3,15.3,0,0,1,3.473.2,5.654,5.654,0,0,1,4.391,5.648c-.01,4.778-.107,9.558.021,14.333a3.705,3.705,0,0,1-5.286,3.694c-.028.237-.068.447-.074.657-.2,6.718-.4,13.435-.576,20.154a3.911,3.911,0,0,1-2.19,3.806,3.7,3.7,0,0,1-4.31-.712.666.666,0,0,0-.146-.068,3.831,3.831,0,0,1-3.363,1.1,3.727,3.727,0,0,1-3.181-3.66q-.324-10.316-.638-20.632c-.007-.222-.027-.444-.035-.568a12.313,12.313,0,0,1-2.046.217,3.43,3.43,0,0,1-3.159-2.612A3.686,3.686,0,0,0,0,113.228Q0,105.133,0,97.037Zm17.964,13.417c0-.256,0-.478,0-.7,0-2.15-.006-4.3,0-6.449,0-.728.365-1.164.95-1.187.6-.024,1,.4,1.034,1.109.01.182,0,.366,0,.549q0,4.184,0,8.369a4.682,4.682,0,0,0,.072.954,1.547,1.547,0,0,0,3.033-.092,5.9,5.9,0,0,0,.042-.889q0-6.483,0-12.966c0-.3.008-.595.036-.889a3.747,3.747,0,0,0-2.954-4.109,19.225,19.225,0,0,0-2.043-.141,1.727,1.727,0,0,0-1.51.582c-1.048,1.053-2.148,2.055-3.238,3.065a1.025,1.025,0,0,1-1.62-.01c-.744-.711-1.478-1.432-2.216-2.149-1.608-1.562-1.608-1.562-3.872-1.477a3.837,3.837,0,0,0-3.676,3.855q.03,7.1.04,14.2c0,.206-.006.412,0,.617A1.471,1.471,0,0,0,3.708,114.2,1.586,1.586,0,0,0,5.2,112.416c.007-3,0-5.992,0-8.987,0-.842.339-1.294.967-1.311.658-.018,1.027.443,1.03,1.326.007,1.829,0,3.659,0,5.488,0,.5,0,.993,0,1.522ZM7.3,112.556c0,.258-.006.482,0,.7q.278,9.257.56,18.513c.055,1.783.089,3.567.189,5.347a1.778,1.778,0,0,0,2.071,1.76,1.878,1.878,0,0,0,1.535-2.11q0-10.085,0-20.169c0-1.081.3-1.567.982-1.577s1.017.485,1.018,1.551q0,9.947,0,19.895a6.705,6.705,0,0,0,.045.958,1.711,1.711,0,0,0,1.715,1.468,1.751,1.751,0,0,0,1.764-1.869q.366-12.1.712-24.2a1.46,1.46,0,0,0-.043-.266Z" transform="translate(0 -78.777)" fill="#23379e"/><path d="M204.054,35.53,197,41.815c-.154.137-.307.274-.464.407-.6.511-1.146.532-1.57.063a1.04,1.04,0,0,1,.227-1.557q1.913-1.719,3.836-3.428c.93-.831,1.858-1.665,2.942-2.637h-12.1c-2.923,0-4.551-1.625-4.551-4.538q0-9.535,0-19.071v-.914c-.511,0-.982.011-1.453,0-.694-.02-1.1-.356-1.109-1.04q-.039-3.429,0-6.859a.958.958,0,0,1,1.024-.981c.2-.014.411-.006.617-.006h39.376c1.45,0,1.684.231,1.684,1.662q0,2.881,0,5.762c0,1.141-.331,1.461-1.474,1.464h-1.245v.847q0,9.57,0,19.139c0,2.942-1.593,4.534-4.536,4.535q-5.557,0-11.113,0h-.933c.786.709,1.417,1.285,2.054,1.854q2.25,2.011,4.5,4.018c.051.046.1.09.154.137.612.568.711,1.121.288,1.608s-1,.463-1.622-.089q-1.975-1.753-3.942-3.515C206.418,37.629,205.242,36.585,204.054,35.53Zm-16.71-25.356v.762q0,9.6,0,19.208c0,1.785.708,2.5,2.48,2.5q14.235,0,28.47,0c1.709,0,2.419-.706,2.419-2.406q0-9.673,0-19.346v-.719Zm36.08-6.851H184.8V8.08h38.629Z" transform="translate(-156.487 -1.071)" fill="#23379e"/><path d="M159.685,390.015c-2.147,0-4.294,0-6.442,0-1.089,0-1.381-.3-1.382-1.382,0-1.964-.009-3.929,0-5.893a4.243,4.243,0,0,1,3.646-4.3,1.632,1.632,0,0,1,1.647.546,3.306,3.306,0,0,0,5.017.015,1.676,1.676,0,0,1,1.71-.553,4.235,4.235,0,0,1,3.6,4.2c.026,2.055.012,4.112,0,6.167,0,.853-.349,1.192-1.223,1.2C164.071,390.021,161.878,390.015,159.685,390.015Zm5.766-2.052c0-1.893.021-3.719-.01-5.544a2.1,2.1,0,0,0-1.12-1.777.782.782,0,0,0-1.083.106,5.256,5.256,0,0,1-7.009.092c-.581-.51-1.033-.447-1.457,0a2.56,2.56,0,0,0-.815,1.357c-.092,1.906-.038,3.82-.038,5.762Z" transform="translate(-130.042 -324.039)" fill="#23379e"/><path d="M274.328,390c-2.17,0-4.34,0-6.51,0-1.013,0-1.3-.3-1.306-1.308,0-2.033-.019-4.066.005-6.1a4.214,4.214,0,0,1,3.693-4.184,1.56,1.56,0,0,1,1.523.532,3.324,3.324,0,0,0,5.068.027,1.634,1.634,0,0,1,1.649-.539,4.256,4.256,0,0,1,3.686,4.34c.01,1.942,0,3.883,0,5.825,0,1.1-.306,1.4-1.438,1.407C278.576,390,276.452,390,274.328,390Zm5.759-2.056c0-1.926.033-3.816-.017-5.7A1.974,1.974,0,0,0,279,380.65a.827.827,0,0,0-1.146.084,5.319,5.319,0,0,1-6.969.142c-.676-.557-1.031-.609-1.59.055a3.224,3.224,0,0,0-.723,1.624,29,29,0,0,0-.037,3.149c0,.744,0,1.487,0,2.239Z" transform="translate(-228.218 -324.022)" fill="#23379e"/><path d="M388.114,389.954h-6.375c-1.21,0-1.513-.3-1.513-1.481,0-1.919-.01-3.839,0-5.758a4.293,4.293,0,0,1,3.839-4.356,1.514,1.514,0,0,1,1.461.522,3.31,3.31,0,0,0,5.109.022,1.58,1.58,0,0,1,1.521-.544,4.2,4.2,0,0,1,3.689,4.184c.019,2.056.007,4.113,0,6.169,0,.935-.295,1.238-1.225,1.241C392.456,389.959,390.285,389.954,388.114,389.954Zm5.7-2.042c0-1.935.032-3.8-.015-5.673a1.887,1.887,0,0,0-1.268-1.725.9.9,0,0,0-.769.1,5.416,5.416,0,0,1-7.366.019.953.953,0,0,0-.825-.1,2.125,2.125,0,0,0-1.312,2.067c-.009,1.645,0,3.29,0,4.935a2.056,2.056,0,0,0,.071.378Z" transform="translate(-325.6 -323.979)" fill="#23379e"/><path d="M58.43,6.725a5.86,5.86,0,0,1-1.481,4.608,5.367,5.367,0,0,1-5.865,1.584A5.252,5.252,0,0,1,47.191,8.2a12.952,12.952,0,0,1,.1-3.812A5.55,5.55,0,0,1,53.324.027a5.692,5.692,0,0,1,5.1,5.452C58.443,5.866,58.43,6.255,58.43,6.725Zm-1.994-.113H56.4c0-.366.012-.732,0-1.1a3.643,3.643,0,0,0-7.279.007c-.025.708-.023,1.418,0,2.126a3.648,3.648,0,0,0,7.22.605A12.286,12.286,0,0,0,56.436,6.613Z" transform="translate(-40.334 0)" fill="#23379e"/><path d="M178.548,317.029a4.636,4.636,0,1,1-4.646,4.6A4.636,4.636,0,0,1,178.548,317.029Zm2.635,4.663a2.628,2.628,0,1,0-2.623,2.618,2.628,2.628,0,0,0,2.623-2.618Z" transform="translate(-148.92 -271.485)" fill="#23379e"/><path d="M293.007,317.023a4.637,4.637,0,1,1-4.62,4.618A4.637,4.637,0,0,1,293.007,317.023Zm2.66,4.631a2.656,2.656,0,1,0-.785,1.88,2.639,2.639,0,0,0,.785-1.88Z" transform="translate(-246.958 -271.48)" fill="#23379e"/><path d="M402.8,321.676a4.6,4.6,0,1,1,1.346,3.307A4.634,4.634,0,0,1,402.8,321.676Zm7.284-.013a2.65,2.65,0,1,0-2.635,2.679,2.68,2.68,0,0,0,2.635-2.679Z" transform="translate(-344.938 -271.518)" fill="#23379e"/><path d="M253.03,131.847l11.654,0c.249,0,.572-.051.73.08a1.924,1.924,0,0,1,.685.907.821.821,0,0,1-.683.962,2.765,2.765,0,0,1-.744.068q-11.722,0-23.444,0a2.693,2.693,0,0,1-.679-.05c-.5-.132-.858-.5-.732-.992a2.008,2.008,0,0,1,.756-.922c.162-.126.485-.055.736-.055Q247.169,131.845,253.03,131.847Z" transform="translate(-205.342 -112.891)" fill="#23379e"/><path d="M252.917,160.867H241.264a3.257,3.257,0,0,1-.683-.024.946.946,0,0,1-.828-.949.913.913,0,0,1,.768-.989,3.714,3.714,0,0,1,.816-.055q11.585,0,23.169,0a3.851,3.851,0,0,1,.75.039.928.928,0,0,1,.828,1.011.951.951,0,0,1-.9.955,3.931,3.931,0,0,1-.616.013Z" transform="translate(-205.307 -136.026)" fill="#23379e"/><path d="M249.964,104.077h8.78a3.358,3.358,0,0,1,.616.02.927.927,0,0,1,.838.932.9.9,0,0,1-.75,1,3.33,3.33,0,0,1-.749.056q-8.711,0-17.423,0c-.114,0-.229,0-.343,0-.779-.035-1.205-.4-1.191-1.03s.455-.973,1.236-.974Q245.471,104.072,249.964,104.077Z" transform="translate(-205.301 -89.121)" fill="#23379e"/></g></g></g></svg>