<svg xmlns="http://www.w3.org/2000/svg" xmlns:xlink="http://www.w3.org/1999/xlink" width="100" height="100" viewBox="0 0 100 100"><defs><clipPath id="b"><rect width="100" height="100"/></clipPath></defs><g id="a" clip-path="url(#b)"><path d="M-79.741-102.9c0,25.022-25.457,52.9-53.816,52.9-28.327,0-46.184-20.731-46.184-45.753,0-24.993,17.857-54.247,46.184-54.247,28.359,0,53.816,22.1,53.816,47.1" transform="translate(150 -79.741) rotate(-90)" fill="rgba(255,178,0,0.15)"/><g transform="translate(12.839 10.208)"><g transform="translate(0 0)"><path d="M24.918,22.1A9.783,9.783,0,0,1,23.833,7.316a9.764,9.764,0,0,1,13.3-.061,9.784,9.784,0,0,1-.968,14.806c.727.177,1.45.377,2.185.513a.686.686,0,0,0,.57-.248,11.865,11.865,0,0,1,8.444-5.67.991.991,0,0,0,.211-.12,9.154,9.154,0,0,1-3.613-8.364A8.7,8.7,0,0,1,46.93,2.365,9.152,9.152,0,0,1,59.655,2.8a9.272,9.272,0,0,1-.928,13.658,30.527,30.527,0,0,1,4.192,1.687,11.116,11.116,0,0,1,5.834,9.318c.117,1.7.059,3.421.052,5.132,0,1.081-.4,1.444-1.5,1.444q-9.616,0-19.231,0H47.033c0,.886-.006,1.694.007,2.5,0,.12.063.308.15.346.9.4,1.6,1.144,2.722,1.138,6.763-.039,13.527-.023,20.29-.016a3.714,3.714,0,1,1,.1,7.411c-4.346.017-8.692,0-13.038,0h-.99L57.6,48.092c.145-.416.238-.743.37-1.052a1.042,1.042,0,0,1,1.3-.694.989.989,0,0,1,.832,1.213c-.427,1.708-.886,3.412-1.427,5.087a1.037,1.037,0,0,1-1.751.347c-1.212-1.168-2.394-2.371-3.519-3.622a1.24,1.24,0,0,1-.17-1.162,5.206,5.206,0,0,1,1.376-.964,19.072,19.072,0,0,0-5.653-6.539A19.9,19.9,0,0,0,17.5,53.169c-.04.213-.074.428-.122.64a1.138,1.138,0,1,1-2.226-.445,22.44,22.44,0,0,1,2.386-7.144c.112-.209.22-.422.38-.729-.365-.018-.648-.044-.931-.044-4.373,0-8.746.016-13.119-.009A3.705,3.705,0,0,1,.1,40.88a3.761,3.761,0,0,1,3.865-2.857c3.015-.015,6.03,0,9.045,0H14c0-1.259-.006-2.445,0-3.631A12.287,12.287,0,0,1,24.505,22.163ZM44.725,35.669c0-.542.02-1.11,0-1.677a9.787,9.787,0,0,0-9.113-9.569c-3.433-.219-6.893-.081-10.339-.01a8.536,8.536,0,0,0-4.88,1.838c-4.032,2.96-4.444,7.174-4.018,11.768h.881c2.336,0,4.672.027,7.007-.02a3.458,3.458,0,0,0,1.591-.438,21.763,21.763,0,0,1,13.772-2.888c1.684.2,3.338.645,5.1,1ZM40.8,23.6a12.554,12.554,0,0,1,5.976,8.1H66.445c0-1.6.123-3.153-.023-4.681a9.224,9.224,0,0,0-8.612-8.124c-3.118-.1-6.245-.116-9.362-.006C45.1,19,42.628,20.707,40.8,23.6Zm-3.01-9.347a7.286,7.286,0,1,0-2.179,5.145A7.276,7.276,0,0,0,37.788,14.249ZM53.1,16a6.846,6.846,0,1,0-4.873-1.989A6.87,6.87,0,0,0,53.1,16Zm-.961,24.287c.77.849,1.439,1.523,2.028,2.26a1.484,1.484,0,0,0,1.31.6c4.832-.021,9.664-.012,14.5-.013a5.16,5.16,0,0,0,.651-.014,1.41,1.41,0,0,0,.063-2.808,5.188,5.188,0,0,0-.812-.029q-8.388,0-16.777,0Zm-30.1,0c-6.186,0-12.211-.006-18.237.007a1.426,1.426,0,1,0,.061,2.838q7.574.019,15.147,0a.99.99,0,0,0,.659-.2c.775-.821,1.513-1.677,2.369-2.641Z" transform="translate(0 0)" fill="#ffb200"/><path d="M118.65,217.834c0,.653.014,1.249,0,1.844a1.08,1.08,0,0,1-1.183,1.163q-2.119.025-4.238,0c-.749-.01-1.265-.451-1.147-1.173.245-1.5-.4-2.133-1.781-2.54s-1.344-.537-2.407.5c-.829.811-1.332.819-2.144.016q-1.3-1.29-2.592-2.595c-.755-.767-.756-1.315.017-2.087.363-.363.772-.682,1.1-.969-.413-1.03-.745-1.914-1.13-2.774a.832.832,0,0,0-.551-.416,11.778,11.778,0,0,0-1.383-.024A1.08,1.08,0,0,1,100,207.643c-.026-1.44-.03-2.88,0-4.32.016-.776.457-1.271,1.262-1.146,1.459.226,2.1-.414,2.393-1.732a8.118,8.118,0,0,1,.664-1.46c-.4-.359-.852-.715-1.251-1.12a1.155,1.155,0,0,1-.029-1.847q1.418-1.463,2.882-2.882a1.087,1.087,0,0,1,1.772.022c.859,1.143,1.665,1.07,2.917.544,1.143-.48,1.6-.962,1.465-2.189-.107-1,.344-1.381,1.348-1.393,1.3-.016,2.608-.018,3.912,0,.955.014,1.4.4,1.295,1.356-.137,1.245.312,1.755,1.483,2.264,1.281.556,2.06.514,2.911-.579.5-.637,1.182-.574,1.776,0q1.461,1.42,2.881,2.882a1.148,1.148,0,0,1,.008,1.794,6.191,6.191,0,0,1-.637.63,6.919,6.919,0,0,1-.637.433c.443,1.111.777,2,1.157,2.862a1.079,1.079,0,0,0,.5.4c.107.056.266.012.4.013,2.221.015,2.249.043,2.249,2.23,0,1.005.01,2.011,0,3.016-.013.97-.392,1.462-1.31,1.335-1.357-.187-1.842.4-2.352,1.591s-.489,1.9.528,2.713c.769.612.71,1.244.019,1.949q-1.341,1.367-2.714,2.7c-.721.7-1.323.757-1.949-.005-.778-.948-1.516-1.281-2.616-.5A7.184,7.184,0,0,1,118.65,217.834Zm-16.311-11.3c.556,0,1.017-.006,1.478,0a1.3,1.3,0,0,1,1.29,1.018c.475,1.289,1.013,2.556,1.583,3.806a1.167,1.167,0,0,1-.164,1.484c-.39.373-.831.693-1.263,1.047l1.68,1.651c.3-.355.6-.738.924-1.1a1.309,1.309,0,0,1,1.755-.207,29.458,29.458,0,0,0,3.586,1.485,1.368,1.368,0,0,1,1.119,1.459c0,.448,0,.9,0,1.346h2.046c0-.42,0-.794,0-1.167.008-1.122.259-1.342,1.333-1.708a25.977,25.977,0,0,0,3.352-1.415,1.312,1.312,0,0,1,1.811.244c.3.346.583.711.892,1.091l1.684-1.685a11.344,11.344,0,0,1-1.05-.815c-.727-.711-.693-1.048-.269-1.937a36.989,36.989,0,0,0,1.471-3.6,1.291,1.291,0,0,1,1.282-1.023c.5-.011,1.007,0,1.483,0v-2.088c-.419,0-.769,0-1.119,0-1.179-.008-1.323-.2-1.705-1.309a24.775,24.775,0,0,0-1.433-3.347,1.314,1.314,0,0,1,.229-1.813c.342-.308.694-.6,1.068-.929l-1.611-1.609c-.279.334-.518.663-.8.95-.788.8-1.061.754-2.063.257a22.754,22.754,0,0,0-3.375-1.356,1.391,1.391,0,0,1-1.183-1.5c.009-.427,0-.854,0-1.308h-2.046c0,.469.006.873,0,1.276-.019.994-.284,1.217-1.216,1.538a25,25,0,0,0-3.429,1.44,1.33,1.33,0,0,1-1.873-.254c-.293-.344-.541-.725-.73-.983l-1.631,1.622c.315.293.678.619,1.029.957a1.268,1.268,0,0,1,.21,1.625c-.564,1.224-1.106,2.464-1.553,3.734a1.325,1.325,0,0,1-1.341,1.056c-.478.007-.955,0-1.453,0Z" transform="translate(-78.253 -148.798)" fill="#ffb200"/><path d="M67.241,276.244a10.939,10.939,0,0,1-.371,1.084,1.052,1.052,0,0,1-1.321.662.978.978,0,0,1-.807-1.223c.435-1.707.909-3.406,1.45-5.081a1.008,1.008,0,0,1,1.628-.417c1.279,1.214,2.528,2.468,3.7,3.786a1.081,1.081,0,0,1-.858,1.765c-.154.014-.31,0-.557,0a18.885,18.885,0,0,0,4.473,5.731,19.886,19.886,0,0,0,32.646-10.779c.089-.4.147-.8.234-1.2.166-.754.669-1.148,1.3-1.037a1.15,1.15,0,0,1,.913,1.47,21.736,21.736,0,0,1-8.162,14.019,22.163,22.163,0,0,1-33.853-7.944C67.545,276.84,67.421,276.6,67.241,276.244Z" transform="translate(-50.645 -210.954)" fill="#ffb200"/><path d="M144.968,227.854a7.181,7.181,0,1,1-7.234,7.046A7.181,7.181,0,0,1,144.968,227.854Zm-.062,2.3a4.877,4.877,0,1,0,3.476,1.434,4.894,4.894,0,0,0-3.476-1.434Z" transform="translate(-107.804 -178.342)" fill="#ffb200"/></g></g></g></svg>