<svg xmlns="http://www.w3.org/2000/svg" xmlns:xlink="http://www.w3.org/1999/xlink" width="29" height="83" viewBox="0 0 29 83"><defs><clipPath id="a"><rect width="26.151" height="80.922" fill="#c2c1c2"/></clipPath><clipPath id="c"><rect width="29" height="83"/></clipPath></defs><g id="b" clip-path="url(#c)"><g transform="translate(27.228 82.118) rotate(-180)"><g transform="translate(0 0)" clip-path="url(#a)"><path d="M17.644,4.692,9.494,6.519A3.582,3.582,0,0,1,12.009,3.3,106.07,106.07,0,0,1,23.289.083c2.188-.462,3.337,1.066,2.677,3.189-1.1,3.544-2.386,7.031-3.6,10.541-.071.205-.127.482-.282.579-.5.311-1.035.553-1.557.822-.221-.451-.674-.932-.62-1.347.182-1.4.542-2.779.838-4.164a4.81,4.81,0,0,0,.031-2.525c-.836.759-1.708,1.483-2.5,2.282A50.789,50.789,0,0,0,9.648,70.227c1.412,2.582,3.142,4.99,4.709,7.488.547.87,1.046,1.769,1.568,2.655l-.485.552c-.62-.228-1.415-.288-1.83-.716a43.918,43.918,0,0,1-4.085-4.683C-2.748,58.59-3.226,35.073,8.472,16.881c2.231-3.47,5.1-6.529,7.7-9.761.534-.665,1.166-1.252,1.753-1.874l-.279-.554" transform="translate(0 0)" fill="#c2c1c2"/></g></g></g></svg>