<svg xmlns="http://www.w3.org/2000/svg" xmlns:xlink="http://www.w3.org/1999/xlink" width="50" height="78" viewBox="0 0 50 78"><defs><clipPath id="a"><rect width="50.205" height="73.787" fill="#e7e6e7"/></clipPath><clipPath id="c"><rect width="50" height="78"/></clipPath></defs><g id="b" clip-path="url(#c)"><g transform="matrix(-0.995, 0.105, -0.105, -0.995, 52.821, 73.382)"><g transform="translate(0 0)" clip-path="url(#a)"><path d="M9.791,48.524A57.417,57.417,0,0,1,14.867,42.8a29.235,29.235,0,0,1,6.789-4.633,5.5,5.5,0,0,1,7.214,2.334c1.6,2.65,1.1,5.559-1.459,7.783-3.3,2.874-7.3,4.138-11.552,4.7-1.04.136-2.09.192-3.073.279-3.5,5.7-2.722,7.915,6.811,19.371-1.576,1.887-3.211,1.118-4.786.084C9.53,69.251,6.07,60.88,7.335,54.724c.128-.623.286-1.24.459-1.983-.781-.454-1.473-.812-2.12-1.238-4.668-3.07-6.8-8.052-5.082-13.368A33.184,33.184,0,0,1,5.1,29.445a42.57,42.57,0,0,1,12.253-11.1c5.668-3.612,11.51-6.949,17.272-10.412.863-.519,1.7-1.079,2.807-1.783A57.118,57.118,0,0,1,31.767,3.7c-.636-.355-1.394-1.775-1.174-2.113A6.215,6.215,0,0,1,32.967.036c.189-.1.512.042.773.081,4.153.624,8.3,1.312,12.46,1.857,3.677.481,4.344,1.192,3.871,4.833a22.481,22.481,0,0,1-5,11.032c-.827,1.054-1.849,1.993-3.512.719C41.3,14.8,44.562,12.1,45.28,8.029c-1.328.592-2.267.914-3.112,1.4-7.3,4.219-14.734,8.243-21.824,12.8a62.7,62.7,0,0,0-10.532,8.9A22.769,22.769,0,0,0,5.2,38.408c-1.8,4.409-.133,7.824,4.587,10.116m5.8-.749.562.88A15.053,15.053,0,0,0,23.4,46.29c2.053-1.3,2.752-2.645,1.854-3.664-1.28-1.451-2.714-.652-3.83.194-2.029,1.539-3.9,3.291-5.83,4.955" transform="translate(0 0)" fill="#e7e6e7"/></g></g></g></svg>