<svg xmlns="http://www.w3.org/2000/svg" xmlns:xlink="http://www.w3.org/1999/xlink" width="100" height="170" viewBox="0 0 100 170"><defs><clipPath id="a"><rect width="36.492" height="12.759" fill="#23379e"/></clipPath><clipPath id="c"><rect width="100" height="170"/></clipPath></defs><g id="b" clip-path="url(#c)"><path d="M12.32,96.643H0A96.562,96.562,0,0,1,96.643,0V12.32A84.419,84.419,0,0,0,12.32,96.643Z" transform="translate(2.038 2)" fill="#ffb200" stroke="rgba(0,0,0,0)" stroke-miterlimit="10" stroke-width="1"/><g transform="translate(2 165.349) rotate(-90)"><g transform="translate(0 0)" clip-path="url(#a)"><path d="M2.089,4.178A2.089,2.089,0,0,0,3.566.612,2.089,2.089,0,1,0,.612,3.566a2.1,2.1,0,0,0,1.477.612" transform="translate(0 8.581)" fill="#23379e"/><path d="M2.089,4.178H2.1A2.089,2.089,0,1,0,2.1,0h-.01a2.089,2.089,0,1,0,0,4.178" transform="translate(21.538 8.581)" fill="#23379e"/><path d="M2.089,4.178H2.1A2.089,2.089,0,0,0,2.1,0H2.089a2.089,2.089,0,0,0,0,4.178" transform="translate(10.766 8.581)" fill="#23379e"/><path d="M2.089,4.178A2.089,2.089,0,0,0,3.566.612,2.089,2.089,0,1,0,.612,3.566a2.1,2.1,0,0,0,1.477.612" transform="translate(32.314 8.581)" fill="#23379e"/><path d="M2.089,4.178A2.089,2.089,0,0,0,3.566.612,2.089,2.089,0,1,0,.612,3.566a2.1,2.1,0,0,0,1.477.612" transform="translate(0 0)" fill="#23379e"/><path d="M2.089,4.178H2.1A2.089,2.089,0,1,0,2.1,0h-.01a2.089,2.089,0,1,0,0,4.178" transform="translate(21.538 0)" fill="#23379e"/><path d="M2.089,4.178H2.1A2.089,2.089,0,0,0,2.1,0H2.089a2.089,2.089,0,0,0,0,4.178" transform="translate(10.766 0)" fill="#23379e"/><path d="M2.089,4.178A2.089,2.089,0,0,0,3.566.612,2.089,2.089,0,1,0,.612,3.566a2.1,2.1,0,0,0,1.477.612" transform="translate(32.314 0)" fill="#23379e"/></g></g></g></svg>