<svg xmlns="http://www.w3.org/2000/svg" xmlns:xlink="http://www.w3.org/1999/xlink" width="325" height="325" viewBox="0 0 325 325"><defs><clipPath id="b"><rect width="325" height="325"/></clipPath></defs><g id="a" clip-path="url(#b)"><g transform="translate(-4886.108 1583.862) rotate(-45)"><circle cx="4.598" cy="4.598" r="4.598" transform="translate(4460 2450)" fill="#d6d6d6"/><circle cx="4.598" cy="4.598" r="4.598" transform="translate(4487.59 2450)" fill="#d6d6d6"/><circle cx="4.598" cy="4.598" r="4.598" transform="translate(4515.18 2450)" fill="#d6d6d6"/><circle cx="4.598" cy="4.598" r="4.598" transform="translate(4542.771 2450)" fill="#d6d6d6"/><circle cx="4.598" cy="4.598" r="4.598" transform="translate(4570.361 2450)" fill="#d6d6d6"/><circle cx="4.598" cy="4.598" r="4.598" transform="translate(4597.951 2450)" fill="#d6d6d6"/><circle cx="4.598" cy="4.598" r="4.598" transform="translate(4625.541 2450)" fill="#d6d6d6"/><circle cx="4.598" cy="4.598" r="4.598" transform="translate(4653.131 2450)" fill="#d6d6d6"/><circle cx="4.598" cy="4.598" r="4.598" transform="translate(4680.722 2450)" fill="#d6d6d6"/><circle cx="4.598" cy="4.598" r="4.598" transform="translate(4460 2477.59)" fill="#d6d6d6"/><circle cx="4.598" cy="4.598" r="4.598" transform="translate(4487.59 2477.59)" fill="#d6d6d6"/><circle cx="4.598" cy="4.598" r="4.598" transform="translate(4515.18 2477.59)" fill="#d6d6d6"/><circle cx="4.598" cy="4.598" r="4.598" transform="translate(4542.771 2477.59)" fill="#d6d6d6"/><circle cx="4.598" cy="4.598" r="4.598" transform="translate(4570.361 2477.59)" fill="#d6d6d6"/><circle cx="4.598" cy="4.598" r="4.598" transform="translate(4597.951 2477.59)" fill="#d6d6d6"/><circle cx="4.598" cy="4.598" r="4.598" transform="translate(4625.541 2477.59)" fill="#d6d6d6"/><circle cx="4.598" cy="4.598" r="4.598" transform="translate(4653.131 2477.59)" fill="#d6d6d6"/><circle cx="4.598" cy="4.598" r="4.598" transform="translate(4680.722 2477.59)" fill="#d6d6d6"/><circle cx="4.598" cy="4.598" r="4.598" transform="translate(4460 2505.18)" fill="#d6d6d6"/><circle cx="4.598" cy="4.598" r="4.598" transform="translate(4487.59 2505.18)" fill="#d6d6d6"/><circle cx="4.598" cy="4.598" r="4.598" transform="translate(4515.18 2505.18)" fill="#d6d6d6"/><circle cx="4.598" cy="4.598" r="4.598" transform="translate(4542.771 2505.18)" fill="#d6d6d6"/><circle cx="4.598" cy="4.598" r="4.598" transform="translate(4570.361 2505.18)" fill="#d6d6d6"/><circle cx="4.598" cy="4.598" r="4.598" transform="translate(4597.951 2505.18)" fill="#d6d6d6"/><circle cx="4.598" cy="4.598" r="4.598" transform="translate(4625.541 2505.18)" fill="#d6d6d6"/><circle cx="4.598" cy="4.598" r="4.598" transform="translate(4653.131 2505.18)" fill="#d6d6d6"/><circle cx="4.598" cy="4.598" r="4.598" transform="translate(4680.722 2505.18)" fill="#d6d6d6"/><circle cx="4.598" cy="4.598" r="4.598" transform="translate(4460 2532.771)" fill="#d6d6d6"/><circle cx="4.598" cy="4.598" r="4.598" transform="translate(4487.59 2532.771)" fill="#d6d6d6"/><circle cx="4.598" cy="4.598" r="4.598" transform="translate(4515.18 2532.771)" fill="#d6d6d6"/><circle cx="4.598" cy="4.598" r="4.598" transform="translate(4542.771 2532.771)" fill="#d6d6d6"/><circle cx="4.598" cy="4.598" r="4.598" transform="translate(4570.361 2532.771)" fill="#d6d6d6"/><circle cx="4.598" cy="4.598" r="4.598" transform="translate(4597.951 2532.771)" fill="#d6d6d6"/><circle cx="4.598" cy="4.598" r="4.598" transform="translate(4625.541 2532.771)" fill="#d6d6d6"/><circle cx="4.598" cy="4.598" r="4.598" transform="translate(4653.131 2532.771)" fill="#d6d6d6"/><circle cx="4.598" cy="4.598" r="4.598" transform="translate(4680.722 2532.771)" fill="#d6d6d6"/><circle cx="4.598" cy="4.598" r="4.598" transform="translate(4460 2560.361)" fill="#d6d6d6"/><circle cx="4.598" cy="4.598" r="4.598" transform="translate(4487.59 2560.361)" fill="#d6d6d6"/><circle cx="4.598" cy="4.598" r="4.598" transform="translate(4515.18 2560.361)" fill="#d6d6d6"/><circle cx="4.598" cy="4.598" r="4.598" transform="translate(4542.771 2560.361)" fill="#d6d6d6"/><circle cx="4.598" cy="4.598" r="4.598" transform="translate(4570.361 2560.361)" fill="#d6d6d6"/><circle cx="4.598" cy="4.598" r="4.598" transform="translate(4597.951 2560.361)" fill="#d6d6d6"/><circle cx="4.598" cy="4.598" r="4.598" transform="translate(4625.541 2560.361)" fill="#d6d6d6"/><circle cx="4.598" cy="4.598" r="4.598" transform="translate(4653.131 2560.361)" fill="#d6d6d6"/><circle cx="4.598" cy="4.598" r="4.598" transform="translate(4680.722 2560.361)" fill="#d6d6d6"/><circle cx="4.598" cy="4.598" r="4.598" transform="translate(4460 2587.951)" fill="#d6d6d6"/><circle cx="4.598" cy="4.598" r="4.598" transform="translate(4487.59 2587.951)" fill="#d6d6d6"/><circle cx="4.598" cy="4.598" r="4.598" transform="translate(4515.18 2587.951)" fill="#d6d6d6"/><circle cx="4.598" cy="4.598" r="4.598" transform="translate(4542.771 2587.951)" fill="#d6d6d6"/><circle cx="4.598" cy="4.598" r="4.598" transform="translate(4570.361 2587.951)" fill="#d6d6d6"/><circle cx="4.598" cy="4.598" r="4.598" transform="translate(4597.951 2587.951)" fill="#d6d6d6"/><circle cx="4.598" cy="4.598" r="4.598" transform="translate(4625.541 2587.951)" fill="#d6d6d6"/><circle cx="4.598" cy="4.598" r="4.598" transform="translate(4653.131 2587.951)" fill="#d6d6d6"/><circle cx="4.598" cy="4.598" r="4.598" transform="translate(4680.722 2587.951)" fill="#d6d6d6"/><circle cx="4.598" cy="4.598" r="4.598" transform="translate(4460 2615.541)" fill="#d6d6d6"/><circle cx="4.598" cy="4.598" r="4.598" transform="translate(4487.59 2615.541)" fill="#d6d6d6"/><circle cx="4.598" cy="4.598" r="4.598" transform="translate(4515.18 2615.541)" fill="#d6d6d6"/><circle cx="4.598" cy="4.598" r="4.598" transform="translate(4542.771 2615.541)" fill="#d6d6d6"/><circle cx="4.598" cy="4.598" r="4.598" transform="translate(4570.361 2615.541)" fill="#d6d6d6"/><circle cx="4.598" cy="4.598" r="4.598" transform="translate(4597.951 2615.541)" fill="#d6d6d6"/><circle cx="4.598" cy="4.598" r="4.598" transform="translate(4625.541 2615.541)" fill="#d6d6d6"/><circle cx="4.598" cy="4.598" r="4.598" transform="translate(4653.131 2615.541)" fill="#d6d6d6"/><circle cx="4.598" cy="4.598" r="4.598" transform="translate(4680.722 2615.541)" fill="#d6d6d6"/><circle cx="4.598" cy="4.598" r="4.598" transform="translate(4460 2643.131)" fill="#d6d6d6"/><circle cx="4.598" cy="4.598" r="4.598" transform="translate(4487.59 2643.131)" fill="#d6d6d6"/><circle cx="4.598" cy="4.598" r="4.598" transform="translate(4515.18 2643.131)" fill="#d6d6d6"/><circle cx="4.598" cy="4.598" r="4.598" transform="translate(4542.771 2643.131)" fill="#d6d6d6"/><circle cx="4.598" cy="4.598" r="4.598" transform="translate(4570.361 2643.131)" fill="#d6d6d6"/><circle cx="4.598" cy="4.598" r="4.598" transform="translate(4597.951 2643.131)" fill="#d6d6d6"/><circle cx="4.598" cy="4.598" r="4.598" transform="translate(4625.541 2643.131)" fill="#d6d6d6"/><circle cx="4.598" cy="4.598" r="4.598" transform="translate(4653.131 2643.131)" fill="#d6d6d6"/><circle cx="4.598" cy="4.598" r="4.598" transform="translate(4680.722 2643.131)" fill="#d6d6d6"/><circle cx="4.598" cy="4.598" r="4.598" transform="translate(4460 2670.722)" fill="#d6d6d6"/><circle cx="4.598" cy="4.598" r="4.598" transform="translate(4487.59 2670.722)" fill="#d6d6d6"/><circle cx="4.598" cy="4.598" r="4.598" transform="translate(4515.18 2670.722)" fill="#d6d6d6"/><circle cx="4.598" cy="4.598" r="4.598" transform="translate(4542.771 2670.722)" fill="#d6d6d6"/><circle cx="4.598" cy="4.598" r="4.598" transform="translate(4570.361 2670.722)" fill="#d6d6d6"/><circle cx="4.598" cy="4.598" r="4.598" transform="translate(4597.951 2670.722)" fill="#d6d6d6"/><circle cx="4.598" cy="4.598" r="4.598" transform="translate(4625.541 2670.722)" fill="#d6d6d6"/><circle cx="4.598" cy="4.598" r="4.598" transform="translate(4653.131 2670.722)" fill="#d6d6d6"/><circle cx="4.598" cy="4.598" r="4.598" transform="translate(4680.722 2670.722)" fill="#d6d6d6"/></g></g></svg>