<svg xmlns="http://www.w3.org/2000/svg" xmlns:xlink="http://www.w3.org/1999/xlink" width="15" height="62" viewBox="0 0 15 62"><defs><clipPath id="a"><rect width="12.759" height="61.492" fill="none"/></clipPath><clipPath id="b"><rect width="36.492" height="12.759" fill="#fff"/></clipPath><clipPath id="e"><rect width="15" height="62"/></clipPath></defs><g id="d" clip-path="url(#e)"><g transform="translate(1 1)" clip-path="url(#a)"><g transform="translate(-240 -4091)"><g transform="translate(252.759 4091) rotate(90)"><g clip-path="url(#b)"><path d="M2.089,4.178A2.089,2.089,0,0,0,3.566.612,2.089,2.089,0,1,0,.612,3.566a2.1,2.1,0,0,0,1.477.612" transform="translate(0 8.581)" fill="#fff"/><path d="M2.089,4.178H2.1A2.089,2.089,0,1,0,2.1,0h-.01a2.089,2.089,0,1,0,0,4.178" transform="translate(21.538 8.581)" fill="#fff"/><path d="M2.089,4.178H2.1A2.089,2.089,0,0,0,2.1,0H2.089a2.089,2.089,0,1,0,0,4.178" transform="translate(10.766 8.581)" fill="#fff"/><path d="M2.089,4.178A2.089,2.089,0,0,0,3.566.612,2.089,2.089,0,1,0,.612,3.566a2.1,2.1,0,0,0,1.477.612" transform="translate(32.314 8.581)" fill="#fff"/><path d="M2.089,4.178A2.089,2.089,0,0,0,3.566.612,2.089,2.089,0,1,0,.612,3.566a2.1,2.1,0,0,0,1.477.612" transform="translate(0 0)" fill="#fff"/><path d="M2.089,4.178H2.1A2.089,2.089,0,1,0,2.1,0h-.01a2.089,2.089,0,1,0,0,4.178" transform="translate(21.538 0)" fill="#fff"/><path d="M2.089,4.178H2.1A2.089,2.089,0,0,0,2.1,0H2.089a2.089,2.089,0,1,0,0,4.178" transform="translate(10.766 0)" fill="#fff"/><path d="M2.089,4.178A2.089,2.089,0,0,0,3.566.612,2.089,2.089,0,1,0,.612,3.566a2.1,2.1,0,0,0,1.477.612" transform="translate(32.314 0)" fill="#fff"/></g></g></g><g transform="translate(-240 -4046)"><g transform="translate(252.759 4091) rotate(90)"><g clip-path="url(#b)"><path d="M2.089,4.178A2.089,2.089,0,0,0,3.566.612,2.089,2.089,0,1,0,.612,3.566a2.1,2.1,0,0,0,1.477.612" transform="translate(0 8.581)" fill="#fff"/><path d="M2.089,4.178H2.1A2.089,2.089,0,1,0,2.1,0h-.01a2.089,2.089,0,1,0,0,4.178" transform="translate(21.538 8.581)" fill="#fff"/><path d="M2.089,4.178H2.1A2.089,2.089,0,0,0,2.1,0H2.089a2.089,2.089,0,1,0,0,4.178" transform="translate(10.766 8.581)" fill="#fff"/><path d="M2.089,4.178A2.089,2.089,0,0,0,3.566.612,2.089,2.089,0,1,0,.612,3.566a2.1,2.1,0,0,0,1.477.612" transform="translate(32.314 8.581)" fill="#fff"/><path d="M2.089,4.178A2.089,2.089,0,0,0,3.566.612,2.089,2.089,0,1,0,.612,3.566a2.1,2.1,0,0,0,1.477.612" transform="translate(0 0)" fill="#fff"/><path d="M2.089,4.178H2.1A2.089,2.089,0,1,0,2.1,0h-.01a2.089,2.089,0,1,0,0,4.178" transform="translate(21.538 0)" fill="#fff"/><path d="M2.089,4.178H2.1A2.089,2.089,0,0,0,2.1,0H2.089a2.089,2.089,0,1,0,0,4.178" transform="translate(10.766 0)" fill="#fff"/><path d="M2.089,4.178A2.089,2.089,0,0,0,3.566.612,2.089,2.089,0,1,0,.612,3.566a2.1,2.1,0,0,0,1.477.612" transform="translate(32.314 0)" fill="#fff"/></g></g></g></g></g></svg>