<svg xmlns="http://www.w3.org/2000/svg" xmlns:xlink="http://www.w3.org/1999/xlink" width="325" height="325" viewBox="0 0 325 325"><defs><clipPath id="b"><rect width="325" height="325"/></clipPath></defs><g id="a" clip-path="url(#b)"><g transform="translate(-2443 4778.02) rotate(-90)"><circle cx="6.22" cy="6.22" r="6.22" transform="translate(4460 2450)" fill="#d6d6d6"/><circle cx="6.22" cy="6.22" r="6.22" transform="translate(4497.322 2450)" fill="#d6d6d6"/><circle cx="6.22" cy="6.22" r="6.22" transform="translate(4534.644 2450)" fill="#d6d6d6"/><circle cx="6.22" cy="6.22" r="6.22" transform="translate(4571.966 2450)" fill="#d6d6d6"/><circle cx="6.22" cy="6.22" r="6.22" transform="translate(4609.289 2450)" fill="#d6d6d6"/><circle cx="6.22" cy="6.22" r="6.22" transform="translate(4646.611 2450)" fill="#d6d6d6"/><circle cx="6.22" cy="6.22" r="6.22" transform="translate(4683.933 2450)" fill="#d6d6d6"/><circle cx="6.22" cy="6.22" r="6.22" transform="translate(4721.255 2450)" fill="#d6d6d6"/><circle cx="6.22" cy="6.22" r="6.22" transform="translate(4758.579 2450)" fill="#d6d6d6"/><circle cx="6.22" cy="6.22" r="6.22" transform="translate(4460 2487.322)" fill="#d6d6d6"/><circle cx="6.22" cy="6.22" r="6.22" transform="translate(4497.322 2487.322)" fill="#d6d6d6"/><circle cx="6.22" cy="6.22" r="6.22" transform="translate(4534.644 2487.322)" fill="#d6d6d6"/><circle cx="6.22" cy="6.22" r="6.22" transform="translate(4571.966 2487.322)" fill="#d6d6d6"/><circle cx="6.22" cy="6.22" r="6.22" transform="translate(4609.289 2487.322)" fill="#d6d6d6"/><circle cx="6.22" cy="6.22" r="6.22" transform="translate(4646.611 2487.322)" fill="#d6d6d6"/><circle cx="6.22" cy="6.22" r="6.22" transform="translate(4683.933 2487.322)" fill="#d6d6d6"/><circle cx="6.22" cy="6.22" r="6.22" transform="translate(4721.255 2487.322)" fill="#d6d6d6"/><circle cx="6.22" cy="6.22" r="6.22" transform="translate(4758.579 2487.322)" fill="#d6d6d6"/><circle cx="6.22" cy="6.22" r="6.22" transform="translate(4460 2524.644)" fill="#d6d6d6"/><circle cx="6.22" cy="6.22" r="6.22" transform="translate(4497.322 2524.644)" fill="#d6d6d6"/><circle cx="6.22" cy="6.22" r="6.22" transform="translate(4534.644 2524.644)" fill="#d6d6d6"/><circle cx="6.22" cy="6.22" r="6.22" transform="translate(4571.966 2524.644)" fill="#d6d6d6"/><circle cx="6.22" cy="6.22" r="6.22" transform="translate(4609.289 2524.644)" fill="#d6d6d6"/><circle cx="6.22" cy="6.22" r="6.22" transform="translate(4646.611 2524.644)" fill="#d6d6d6"/><circle cx="6.22" cy="6.22" r="6.22" transform="translate(4683.933 2524.644)" fill="#d6d6d6"/><circle cx="6.22" cy="6.22" r="6.22" transform="translate(4721.255 2524.644)" fill="#d6d6d6"/><circle cx="6.22" cy="6.22" r="6.22" transform="translate(4758.579 2524.644)" fill="#d6d6d6"/><circle cx="6.22" cy="6.22" r="6.22" transform="translate(4460 2561.967)" fill="#d6d6d6"/><circle cx="6.22" cy="6.22" r="6.22" transform="translate(4497.322 2561.967)" fill="#d6d6d6"/><circle cx="6.22" cy="6.22" r="6.22" transform="translate(4534.644 2561.967)" fill="#d6d6d6"/><circle cx="6.22" cy="6.22" r="6.22" transform="translate(4571.966 2561.967)" fill="#d6d6d6"/><circle cx="6.22" cy="6.22" r="6.22" transform="translate(4609.289 2561.967)" fill="#d6d6d6"/><circle cx="6.22" cy="6.22" r="6.22" transform="translate(4646.611 2561.967)" fill="#d6d6d6"/><circle cx="6.22" cy="6.22" r="6.22" transform="translate(4683.933 2561.967)" fill="#d6d6d6"/><circle cx="6.22" cy="6.22" r="6.22" transform="translate(4721.255 2561.967)" fill="#d6d6d6"/><circle cx="6.22" cy="6.22" r="6.22" transform="translate(4758.579 2561.967)" fill="#d6d6d6"/><circle cx="6.22" cy="6.22" r="6.22" transform="translate(4460 2599.289)" fill="#d6d6d6"/><circle cx="6.22" cy="6.22" r="6.22" transform="translate(4497.322 2599.289)" fill="#d6d6d6"/><circle cx="6.22" cy="6.22" r="6.22" transform="translate(4534.644 2599.289)" fill="#d6d6d6"/><circle cx="6.22" cy="6.22" r="6.22" transform="translate(4571.966 2599.289)" fill="#d6d6d6"/><circle cx="6.22" cy="6.22" r="6.22" transform="translate(4609.289 2599.289)" fill="#d6d6d6"/><circle cx="6.22" cy="6.22" r="6.22" transform="translate(4646.611 2599.289)" fill="#d6d6d6"/><circle cx="6.22" cy="6.22" r="6.22" transform="translate(4683.933 2599.289)" fill="#d6d6d6"/><circle cx="6.22" cy="6.22" r="6.22" transform="translate(4721.255 2599.289)" fill="#d6d6d6"/><circle cx="6.22" cy="6.22" r="6.22" transform="translate(4758.579 2599.289)" fill="#d6d6d6"/><circle cx="6.22" cy="6.22" r="6.22" transform="translate(4460 2636.611)" fill="#d6d6d6"/><circle cx="6.22" cy="6.22" r="6.22" transform="translate(4497.322 2636.611)" fill="#d6d6d6"/><circle cx="6.22" cy="6.22" r="6.22" transform="translate(4534.644 2636.611)" fill="#d6d6d6"/><circle cx="6.22" cy="6.22" r="6.22" transform="translate(4571.966 2636.611)" fill="#d6d6d6"/><circle cx="6.22" cy="6.22" r="6.22" transform="translate(4609.289 2636.611)" fill="#d6d6d6"/><circle cx="6.22" cy="6.22" r="6.22" transform="translate(4646.611 2636.611)" fill="#d6d6d6"/><circle cx="6.22" cy="6.22" r="6.22" transform="translate(4683.933 2636.611)" fill="#d6d6d6"/><circle cx="6.22" cy="6.22" r="6.22" transform="translate(4721.255 2636.611)" fill="#d6d6d6"/><circle cx="6.22" cy="6.22" r="6.22" transform="translate(4758.579 2636.611)" fill="#d6d6d6"/><circle cx="6.22" cy="6.22" r="6.22" transform="translate(4460 2673.933)" fill="#d6d6d6"/><circle cx="6.22" cy="6.22" r="6.22" transform="translate(4497.322 2673.933)" fill="#d6d6d6"/><circle cx="6.22" cy="6.22" r="6.22" transform="translate(4534.644 2673.933)" fill="#d6d6d6"/><circle cx="6.22" cy="6.22" r="6.22" transform="translate(4571.966 2673.933)" fill="#d6d6d6"/><circle cx="6.22" cy="6.22" r="6.22" transform="translate(4609.289 2673.933)" fill="#d6d6d6"/><circle cx="6.22" cy="6.22" r="6.22" transform="translate(4646.611 2673.933)" fill="#d6d6d6"/><circle cx="6.22" cy="6.22" r="6.22" transform="translate(4683.933 2673.933)" fill="#d6d6d6"/><circle cx="6.22" cy="6.22" r="6.22" transform="translate(4721.255 2673.933)" fill="#d6d6d6"/><circle cx="6.22" cy="6.22" r="6.22" transform="translate(4758.579 2673.933)" fill="#d6d6d6"/><circle cx="6.22" cy="6.22" r="6.22" transform="translate(4460 2711.255)" fill="#d6d6d6"/><circle cx="6.22" cy="6.22" r="6.22" transform="translate(4497.322 2711.255)" fill="#d6d6d6"/><circle cx="6.22" cy="6.22" r="6.22" transform="translate(4534.644 2711.255)" fill="#d6d6d6"/><circle cx="6.22" cy="6.22" r="6.22" transform="translate(4571.966 2711.255)" fill="#d6d6d6"/><circle cx="6.22" cy="6.22" r="6.22" transform="translate(4609.289 2711.255)" fill="#d6d6d6"/><circle cx="6.22" cy="6.22" r="6.22" transform="translate(4646.611 2711.255)" fill="#d6d6d6"/><circle cx="6.22" cy="6.22" r="6.22" transform="translate(4683.933 2711.255)" fill="#d6d6d6"/><circle cx="6.22" cy="6.22" r="6.22" transform="translate(4721.255 2711.255)" fill="#d6d6d6"/><circle cx="6.22" cy="6.22" r="6.22" transform="translate(4758.579 2711.255)" fill="#d6d6d6"/><circle cx="6.22" cy="6.22" r="6.22" transform="translate(4460 2748.578)" fill="#d6d6d6"/><circle cx="6.22" cy="6.22" r="6.22" transform="translate(4497.322 2748.578)" fill="#d6d6d6"/><circle cx="6.22" cy="6.22" r="6.22" transform="translate(4534.644 2748.578)" fill="#d6d6d6"/><circle cx="6.22" cy="6.22" r="6.22" transform="translate(4571.966 2748.578)" fill="#d6d6d6"/><circle cx="6.22" cy="6.22" r="6.22" transform="translate(4609.289 2748.578)" fill="#d6d6d6"/><circle cx="6.22" cy="6.22" r="6.22" transform="translate(4646.611 2748.578)" fill="#d6d6d6"/><circle cx="6.22" cy="6.22" r="6.22" transform="translate(4683.933 2748.578)" fill="#d6d6d6"/><circle cx="6.22" cy="6.22" r="6.22" transform="translate(4721.255 2748.578)" fill="#d6d6d6"/><circle cx="6.22" cy="6.22" r="6.22" transform="translate(4758.579 2748.578)" fill="#d6d6d6"/></g></g></svg>