<svg xmlns="http://www.w3.org/2000/svg" xmlns:xlink="http://www.w3.org/1999/xlink" width="101" height="201" viewBox="0 0 101 201"><defs><clipPath id="a"><rect width="29.266" height="10.232" fill="#23379e"/></clipPath><clipPath id="c"><rect width="101" height="201"/></clipPath></defs><g id="b" clip-path="url(#c)"><g transform="translate(-32.643 83.322)"><g transform="translate(0 -83.322)"><path d="M150.144,66.821V0A66.822,66.822,0,0,0,83.322,66.821Z" transform="translate(-49.912 0.001)" fill="#e7e6e7"/><path d="M66.822,150.143V83.321A66.822,66.822,0,0,0,0,150.143Z" transform="translate(66.821 50.322)" fill="#23379e"/><path d="M32.462,158.627V126.165A32.463,32.463,0,0,0,0,158.627Z" transform="translate(101.181 41.838)" fill="#fff"/><path d="M66.822,66.821V0H0A66.822,66.822,0,0,0,66.822,66.821Z" transform="translate(66.821 66.822)" fill="#e03a49"/><g transform="translate(33.41 133.643)"><g transform="translate(0 0)" clip-path="url(#a)"><path d="M1.675,11.932a1.676,1.676,0,1,0-1.185-.491,1.686,1.686,0,0,0,1.185.491" transform="translate(0 -1.699)" fill="#23379e"/><path d="M23.213,11.932h.008a1.675,1.675,0,1,0,0-3.351h-.008a1.675,1.675,0,0,0,0,3.351" transform="translate(-4.265 -1.699)" fill="#23379e"/><path d="M12.441,11.932h.009a1.675,1.675,0,0,0,0-3.351h-.009a1.675,1.675,0,0,0,0,3.351" transform="translate(-2.132 -1.699)" fill="#23379e"/><path d="M33.989,11.932a1.676,1.676,0,1,0-1.185-.491,1.686,1.686,0,0,0,1.185.491" transform="translate(-6.399 -1.699)" fill="#23379e"/><path d="M1.675,3.351A1.675,1.675,0,0,0,2.86.491,1.675,1.675,0,1,0,.491,2.86a1.686,1.686,0,0,0,1.185.491" transform="translate(0 0)" fill="#23379e"/><path d="M23.213,3.351h.008a1.675,1.675,0,0,0,0-3.351h-.008a1.675,1.675,0,0,0,0,3.351" transform="translate(-4.265 0)" fill="#23379e"/><path d="M12.441,3.351h.009A1.675,1.675,0,0,0,12.45,0h-.009a1.675,1.675,0,0,0,0,3.351" transform="translate(-2.132 0)" fill="#23379e"/><path d="M33.989,3.351A1.675,1.675,0,0,0,35.174.491,1.675,1.675,0,1,0,32.8,2.86a1.686,1.686,0,0,0,1.185.491" transform="translate(-6.399 0)" fill="#23379e"/></g></g></g></g></g></svg>