<svg xmlns="http://www.w3.org/2000/svg" xmlns:xlink="http://www.w3.org/1999/xlink" width="51" height="125" viewBox="0 0 51 125"><defs><clipPath id="b"><rect width="51" height="125"/></clipPath></defs><g id="a" clip-path="url(#b)"><g transform="translate(-1721 -3299)"><path d="M2.089,4.178A2.089,2.089,0,0,0,3.566.612,2.089,2.089,0,1,0,.612,3.566a2.1,2.1,0,0,0,1.477.612" transform="translate(1726.178 3300) rotate(90)" fill="#a1a0a1"/><path d="M2.089,4.178H2.1A2.089,2.089,0,1,0,2.1,0h-.01a2.089,2.089,0,1,0,0,4.178" transform="translate(1726.178 3321.538) rotate(90)" fill="#a1a0a1"/><path d="M2.089,4.178H2.1A2.089,2.089,0,0,0,2.1,0H2.089a2.089,2.089,0,1,0,0,4.178" transform="translate(1726.178 3310.766) rotate(90)" fill="#a1a0a1"/><path d="M2.089,4.178A2.089,2.089,0,0,0,3.566.612,2.089,2.089,0,1,0,.612,3.566a2.1,2.1,0,0,0,1.477.612" transform="translate(1726.178 3332.314) rotate(90)" fill="#a1a0a1"/><path d="M2.089,4.178A2.089,2.089,0,0,0,3.566.612,2.089,2.089,0,1,0,.612,3.566a2.1,2.1,0,0,0,1.477.612" transform="translate(1734.759 3300) rotate(90)" fill="#a1a0a1"/><path d="M2.089,4.178H2.1A2.089,2.089,0,1,0,2.1,0h-.01a2.089,2.089,0,1,0,0,4.178" transform="translate(1734.759 3321.538) rotate(90)" fill="#a1a0a1"/><path d="M2.089,4.178H2.1A2.089,2.089,0,0,0,2.1,0H2.089a2.089,2.089,0,1,0,0,4.178" transform="translate(1734.759 3310.766) rotate(90)" fill="#a1a0a1"/><path d="M2.089,4.178A2.089,2.089,0,0,0,3.566.612,2.089,2.089,0,1,0,.612,3.566a2.1,2.1,0,0,0,1.477.612" transform="translate(1734.759 3332.314) rotate(90)" fill="#a1a0a1"/><path d="M2.089,4.178A2.089,2.089,0,0,0,3.566.612,2.089,2.089,0,1,0,.612,3.566a2.1,2.1,0,0,0,1.477.612" transform="translate(1744.178 3300) rotate(90)" fill="#a1a0a1"/><path d="M2.089,4.178H2.1A2.089,2.089,0,1,0,2.1,0h-.01a2.089,2.089,0,1,0,0,4.178" transform="translate(1744.178 3321.538) rotate(90)" fill="#a1a0a1"/><path d="M2.089,4.178H2.1A2.089,2.089,0,0,0,2.1,0H2.089a2.089,2.089,0,1,0,0,4.178" transform="translate(1744.178 3310.766) rotate(90)" fill="#a1a0a1"/><path d="M2.089,4.178A2.089,2.089,0,0,0,3.566.612,2.089,2.089,0,1,0,.612,3.566a2.1,2.1,0,0,0,1.477.612" transform="translate(1744.178 3332.314) rotate(90)" fill="#a1a0a1"/><path d="M2.089,4.178A2.089,2.089,0,0,0,3.566.612,2.089,2.089,0,1,0,.612,3.566a2.1,2.1,0,0,0,1.477.612" transform="translate(1752.759 3300) rotate(90)" fill="#a1a0a1"/><path d="M2.089,4.178H2.1A2.089,2.089,0,1,0,2.1,0h-.01a2.089,2.089,0,1,0,0,4.178" transform="translate(1752.759 3321.538) rotate(90)" fill="#a1a0a1"/><path d="M2.089,4.178H2.1A2.089,2.089,0,0,0,2.1,0H2.089a2.089,2.089,0,1,0,0,4.178" transform="translate(1752.759 3310.766) rotate(90)" fill="#a1a0a1"/><path d="M2.089,4.178A2.089,2.089,0,0,0,3.566.612,2.089,2.089,0,1,0,.612,3.566a2.1,2.1,0,0,0,1.477.612" transform="translate(1752.759 3332.314) rotate(90)" fill="#a1a0a1"/><path d="M2.089,4.178A2.089,2.089,0,0,0,3.566.612,2.089,2.089,0,1,0,.612,3.566a2.1,2.1,0,0,0,1.477.612" transform="translate(1762.178 3300) rotate(90)" fill="#a1a0a1"/><path d="M2.089,4.178H2.1A2.089,2.089,0,1,0,2.1,0h-.01a2.089,2.089,0,1,0,0,4.178" transform="translate(1762.178 3321.538) rotate(90)" fill="#a1a0a1"/><path d="M2.089,4.178H2.1A2.089,2.089,0,0,0,2.1,0H2.089a2.089,2.089,0,1,0,0,4.178" transform="translate(1762.178 3310.766) rotate(90)" fill="#a1a0a1"/><path d="M2.089,4.178A2.089,2.089,0,0,0,3.566.612,2.089,2.089,0,1,0,.612,3.566a2.1,2.1,0,0,0,1.477.612" transform="translate(1762.178 3332.314) rotate(90)" fill="#a1a0a1"/><path d="M2.089,4.178A2.089,2.089,0,0,0,3.566.612,2.089,2.089,0,1,0,.612,3.566a2.1,2.1,0,0,0,1.477.612" transform="translate(1770.759 3300) rotate(90)" fill="#a1a0a1"/><path d="M2.089,4.178H2.1A2.089,2.089,0,0,0,2.1,0H2.089a2.089,2.089,0,1,0,0,4.178" transform="translate(1770.759 3310.766) rotate(90)" fill="#a1a0a1"/><path d="M2.089,4.178A2.089,2.089,0,0,0,3.566.612,2.089,2.089,0,1,0,.612,3.566a2.1,2.1,0,0,0,1.477.612" transform="translate(1726.178 3343) rotate(90)" fill="#a1a0a1"/><path d="M2.089,4.178H2.1A2.089,2.089,0,1,0,2.1,0h-.01a2.089,2.089,0,1,0,0,4.178" transform="translate(1726.178 3364.538) rotate(90)" fill="#a1a0a1"/><path d="M2.089,4.178H2.1A2.089,2.089,0,0,0,2.1,0H2.089a2.089,2.089,0,1,0,0,4.178" transform="translate(1726.178 3353.766) rotate(90)" fill="#a1a0a1"/><path d="M2.089,4.178A2.089,2.089,0,0,0,3.566.612,2.089,2.089,0,1,0,.612,3.566a2.1,2.1,0,0,0,1.477.612" transform="translate(1726.178 3375.314) rotate(90)" fill="#a1a0a1"/><path d="M2.089,4.178A2.089,2.089,0,0,0,3.566.612,2.089,2.089,0,1,0,.612,3.566a2.1,2.1,0,0,0,1.477.612" transform="translate(1734.759 3343) rotate(90)" fill="#a1a0a1"/><path d="M2.089,4.178H2.1A2.089,2.089,0,1,0,2.1,0h-.01a2.089,2.089,0,1,0,0,4.178" transform="translate(1734.759 3364.538) rotate(90)" fill="#a1a0a1"/><path d="M2.089,4.178H2.1A2.089,2.089,0,0,0,2.1,0H2.089a2.089,2.089,0,1,0,0,4.178" transform="translate(1734.759 3353.766) rotate(90)" fill="#a1a0a1"/><path d="M2.089,4.178A2.089,2.089,0,0,0,3.566.612,2.089,2.089,0,1,0,.612,3.566a2.1,2.1,0,0,0,1.477.612" transform="translate(1734.759 3375.314) rotate(90)" fill="#a1a0a1"/><path d="M2.089,4.178A2.089,2.089,0,0,0,3.566.612,2.089,2.089,0,1,0,.612,3.566a2.1,2.1,0,0,0,1.477.612" transform="translate(1744.178 3343) rotate(90)" fill="#a1a0a1"/><path d="M2.089,4.178H2.1A2.089,2.089,0,1,0,2.1,0h-.01a2.089,2.089,0,1,0,0,4.178" transform="translate(1744.178 3364.538) rotate(90)" fill="#a1a0a1"/><path d="M2.089,4.178H2.1A2.089,2.089,0,0,0,2.1,0H2.089a2.089,2.089,0,1,0,0,4.178" transform="translate(1744.178 3353.766) rotate(90)" fill="#a1a0a1"/><path d="M2.089,4.178A2.089,2.089,0,0,0,3.566.612,2.089,2.089,0,1,0,.612,3.566a2.1,2.1,0,0,0,1.477.612" transform="translate(1744.178 3375.314) rotate(90)" fill="#a1a0a1"/><path d="M2.089,4.178A2.089,2.089,0,0,0,3.566.612,2.089,2.089,0,1,0,.612,3.566a2.1,2.1,0,0,0,1.477.612" transform="translate(1752.759 3343) rotate(90)" fill="#a1a0a1"/><path d="M2.089,4.178H2.1A2.089,2.089,0,0,0,2.1,0H2.089a2.089,2.089,0,1,0,0,4.178" transform="translate(1752.759 3353.766) rotate(90)" fill="#a1a0a1"/><path d="M2.089,4.178A2.089,2.089,0,0,0,3.566.612,2.089,2.089,0,1,0,.612,3.566a2.1,2.1,0,0,0,1.477.612" transform="translate(1726.178 3386) rotate(90)" fill="#a1a0a1"/><path d="M2.089,4.178H2.1A2.089,2.089,0,1,0,2.1,0h-.01a2.089,2.089,0,1,0,0,4.178" transform="translate(1726.178 3407.538) rotate(90)" fill="#a1a0a1"/><path d="M2.089,4.178H2.1A2.089,2.089,0,0,0,2.1,0H2.089a2.089,2.089,0,1,0,0,4.178" transform="translate(1726.178 3396.766) rotate(90)" fill="#a1a0a1"/><path d="M2.089,4.178A2.089,2.089,0,0,0,3.566.612,2.089,2.089,0,1,0,.612,3.566a2.1,2.1,0,0,0,1.477.612" transform="translate(1726.178 3418.314) rotate(90)" fill="#a1a0a1"/><path d="M2.089,4.178A2.089,2.089,0,0,0,3.566.612,2.089,2.089,0,1,0,.612,3.566a2.1,2.1,0,0,0,1.477.612" transform="translate(1734.759 3386) rotate(90)" fill="#a1a0a1"/><path d="M2.089,4.178H2.1A2.089,2.089,0,0,0,2.1,0H2.089a2.089,2.089,0,1,0,0,4.178" transform="translate(1734.759 3396.766) rotate(90)" fill="#a1a0a1"/></g></g></svg>