<svg xmlns="http://www.w3.org/2000/svg" xmlns:xlink="http://www.w3.org/1999/xlink" width="50" height="241" viewBox="0 0 50 241"><defs><clipPath id="a"><rect width="238.688" height="47.738" fill="none"/></clipPath><clipPath id="c"><rect width="50" height="241"/></clipPath></defs><g id="b" clip-path="url(#c)"><g transform="translate(48.738 1) rotate(90)"><g transform="translate(0 0)" clip-path="url(#a)"><path d="M47.738,47.738h0A47.738,47.738,0,0,1,0,0H47.738Z" transform="translate(0 0)" fill="#e7e6e7"/><rect width="47.738" height="47.738" transform="translate(47.737)" fill="#23379e"/><path d="M131.059,47.738H83.321L131.059,0Z" transform="translate(-35.584 0)" fill="#0a335b"/><path d="M214.381,47.738H166.643V0A47.738,47.738,0,0,1,214.381,47.738Z" transform="translate(-71.168 0)" fill="#ffb200"/><path d="M381.025,47.738H333.287V0A47.738,47.738,0,0,1,381.025,47.738Z" transform="translate(-142.337 0)" fill="#ffb200"/><path d="M297.7,47.738H249.965A47.738,47.738,0,0,1,297.7,0Z" transform="translate(-106.752 0)" fill="#0a335b"/><path d="M297.7,47.738H249.965A47.738,47.738,0,0,1,297.7,0Z" transform="translate(-106.752 0)" fill="#23379e"/><path d="M363.27,60.972H333.287V30.989A29.983,29.983,0,0,1,363.27,60.972Z" transform="translate(-142.337 -13.234)" fill="#fff"/><path d="M310.937,60.972H280.954a29.983,29.983,0,0,1,29.983-29.983Z" transform="translate(-119.987 -13.234)" fill="#e03a49"/></g></g></g></svg>