<svg xmlns="http://www.w3.org/2000/svg" xmlns:xlink="http://www.w3.org/1999/xlink" width="127" height="255" viewBox="0 0 127 255"><defs><clipPath id="a"><path d="M0,0A125.091,125.091,0,0,1,124.949,124.95V252.1h-1V124.95A124.09,124.09,0,0,0,0,1Z" transform="translate(0)" fill="#a1a0a1"/></clipPath><clipPath id="b"><path d="M124.949,124.95V252.1h-1V124.95A107.782,107.782,0,0,0,16.29,17.29v-1A108.783,108.783,0,0,1,124.949,124.95" transform="translate(-16.29 -16.29)" fill="#a1a0a1"/></clipPath><clipPath id="c"><path d="M124.949,124.952h-1a91.484,91.484,0,0,0-91.38-91.38v-1a92.485,92.485,0,0,1,92.38,92.38" transform="translate(-32.569 -32.572)" fill="#a1a0a1"/></clipPath><clipPath id="d"><path d="M124.949,124.952h-1A75.179,75.179,0,0,0,48.855,49.857v-1a76.179,76.179,0,0,1,76.094,76.094" transform="translate(-48.855 -48.858)" fill="#a1a0a1"/></clipPath><clipPath id="e"><path d="M124.949,124.95V252.1h-1V124.95A58.876,58.876,0,0,0,65.139,66.14v-1a59.878,59.878,0,0,1,59.81,59.81" transform="translate(-65.139 -65.14)" fill="#a1a0a1"/></clipPath><clipPath id="f"><path d="M124.949,124.952h-1A42.573,42.573,0,0,0,81.425,82.427v-1a43.574,43.574,0,0,1,43.524,43.524" transform="translate(-81.425 -81.428)" fill="#a1a0a1"/></clipPath><clipPath id="g"><path d="M124.949,124.95V252.1h-1V124.95A26.269,26.269,0,0,0,97.71,98.709v-1a27.272,27.272,0,0,1,27.239,27.241" transform="translate(-97.71 -97.709)" fill="#a1a0a1"/></clipPath><clipPath id="h"><path d="M124.949,124.952h-1A9.965,9.965,0,0,0,113.995,115v-1a10.966,10.966,0,0,1,10.954,10.954" transform="translate(-113.995 -113.998)" fill="#a1a0a1"/></clipPath><clipPath id="j"><rect width="127" height="255"/></clipPath></defs><g id="i" clip-path="url(#j)"><g transform="translate(1 1.45)"><g transform="translate(0)"><g clip-path="url(#a)"><rect width="124.949" height="252.1" transform="translate(0 0)" fill="#a1a0a1"/></g></g><g transform="translate(0 16.29)"><g clip-path="url(#b)"><rect width="108.659" height="235.81" transform="translate(0 0)" fill="#a1a0a1"/></g></g><g transform="translate(0 32.572)"><g clip-path="url(#c)"><rect width="92.38" height="92.38" transform="translate(0 0)" fill="#a1a0a1"/></g></g><g transform="translate(0 48.858)"><g clip-path="url(#d)"><rect width="76.094" height="76.094" transform="translate(0)" fill="#a1a0a1"/></g></g><g transform="translate(0 65.14)"><g clip-path="url(#e)"><rect width="59.81" height="186.96" transform="translate(0)" fill="#a1a0a1"/></g></g><g transform="translate(0 81.428)"><g clip-path="url(#f)"><rect width="43.524" height="43.524" transform="translate(0 0)" fill="#a1a0a1"/></g></g><g transform="translate(0 97.709)"><g transform="translate(0)" clip-path="url(#g)"><rect width="27.239" height="154.391" transform="translate(0 0)" fill="#a1a0a1"/></g></g><g transform="translate(0 113.998)"><g transform="translate(0)" clip-path="url(#h)"><rect width="10.954" height="10.954" transform="translate(0)" fill="#a1a0a1"/></g></g></g></g></svg>