<svg xmlns="http://www.w3.org/2000/svg" xmlns:xlink="http://www.w3.org/1999/xlink" width="90" height="90" viewBox="0 0 90 90"><defs><clipPath id="b"><rect width="90" height="90"/></clipPath></defs><g id="a" clip-path="url(#b)"><rect width="72" height="72" rx="36" transform="translate(0 18)" fill="#eaeaea"/><g transform="translate(1.999 10)"><g transform="translate(8.001 0)"><path d="M65.589,46.152c.1,2.207.2,4.331.3,6.455q.385,7.818.774,15.635c.049,1.011-.3,1.371-1.3,1.373q-3.263.008-6.527,0c-.92,0-1.222-.261-1.311-1.173q-.7-7.123-1.377-14.248a.756.756,0,0,0-.175-.477c-.072.636-.153,1.271-.213,1.908q-.591,6.217-1.173,12.435c-.127,1.352-.344,1.556-1.688,1.556H46.864c-1.232,0-1.532-.337-1.473-1.549.459-9.442.959-18.883,1.338-28.329.152-3.785.029-7.582.042-11.373,0-.467-.147-.8-.64-.834a18.688,18.688,0,0,1-7.725-2.1c0,.458,0,.794,0,1.13a3.864,3.864,0,0,1-4.162,4.158q-6.6,0-13.194,0h-.807v3.787c1.123,0,2.217.018,3.309-.007a1.263,1.263,0,0,1,1.257.707c.37.677.778,1.333,1.147,2.01a.993.993,0,0,1-.264,1.421,1.015,1.015,0,0,1-1.428-.435.532.532,0,0,1-.073-.12c-.444-1.41-1.408-1.747-2.824-1.644-1.885.138-3.788.045-5.682.025a.772.772,0,0,0-.825.478,12.732,12.732,0,0,1-.732,1.277,1.015,1.015,0,0,1-1.375.452.988.988,0,0,1-.338-1.4A17.528,17.528,0,0,1,13.7,35.1a1.651,1.651,0,0,1,1.091-.569c1.113-.075,2.234-.026,3.4-.026V30.721h-14A3.862,3.862,0,0,1,0,26.519Q0,16.093,0,5.666A3.848,3.848,0,0,1,4.16,1.511q15.054,0,30.108,0A3.843,3.843,0,0,1,38.4,5.622c.017,3.089-.012,6.179.025,9.268a1.965,1.965,0,0,0,.456,1.165,8.6,8.6,0,0,0,7.983,2.808c1.132-.132,2.244-.438,3.367-.656a2.343,2.343,0,0,0,1.838-1.631,9.646,9.646,0,0,1-2.7-4.234,41.564,41.564,0,0,1-1.4-4.67,12.53,12.53,0,0,1,.488-5.961.9.9,0,0,1,.971-.751c2.243.308,4.351-.387,6.506-.78A5.6,5.6,0,0,1,58.563.145a18.9,18.9,0,0,1,3.955,2.016A3.558,3.558,0,0,1,63.865,5.2a12.816,12.816,0,0,1-.622,4.91c-.425,1.231-.681,2.533-1.22,3.709a11.867,11.867,0,0,1-1.747,2.431c-.238.29-.339.538-.087.772a4.414,4.414,0,0,0,1.391,1.063c1.7.576,3.455.99,5.167,1.536,2.569.819,3.74,2.662,3.877,5.317a157.867,157.867,0,0,1-.3,17.048,4.413,4.413,0,0,1-3.833,4.054C66.214,46.075,65.937,46.107,65.589,46.152ZM36.408,12.4c0-2.5.043-4.876-.02-7.254a1.753,1.753,0,0,0-1.97-1.671q-15.224-.009-30.448,0a1.862,1.862,0,0,0-2,2.033q-.01,10.6,0,21.2a1.875,1.875,0,0,0,2.061,2.042q15.189.007,30.378,0a1.859,1.859,0,0,0,2.022-1.941,21.935,21.935,0,0,0-.006-2.245,1.078,1.078,0,0,0-.344-.693,22.435,22.435,0,0,1-5.913-8.252,3.154,3.154,0,0,1,.841-3.763C32.62,10.409,34.682,10.585,36.408,12.4ZM48.7,40.365l-1.3,27.244h5.249c.329-3.413.656-6.788.98-10.163.2-2.049.378-4.1.585-6.146a1.824,1.824,0,0,1,1.776-1.749,1.8,1.8,0,0,1,1.845,1.662c.387,3.91.756,7.821,1.132,11.732q.224,2.328.452,4.649H64.66L63.333,40.365Zm16.777,3.7a2.511,2.511,0,0,0,2.9-2.334c.06-1.355.184-2.71.2-4.065.043-4.255.056-8.511.062-12.767a3.272,3.272,0,0,0-2.472-3.413c-1.47-.458-2.96-.852-4.433-1.3a.871.871,0,0,0-1.035.267,6.075,6.075,0,0,1-3.1,1.818c-.5.115-.6.33-.6.8.017,4.866.01,9.733.012,14.6,0,.2.022.41.036.652H63.3V37.53q0-4.878,0-9.756a6,6,0,0,1,.012-.631.965.965,0,0,1,1.9-.15,3.042,3.042,0,0,1,.052.766c0,3.743-.019,7.487.012,11.23.014,1.7.131,3.4.2,5.075Zm-16.74-5.755h6.281V22.429a6.915,6.915,0,0,1-3.691-2.007.825.825,0,0,0-.915-.241,32.45,32.45,0,0,1-3.437.645A10.607,10.607,0,0,1,36.74,16.58c-.747-.983-1.374-2.057-2.064-3.085a1.422,1.422,0,0,0-1.97-.436,1.325,1.325,0,0,0-.727,1.805,21.247,21.247,0,0,0,4.65,6.863,14.631,14.631,0,0,0,9.275,3.806c1.907.136,2.825,1.071,2.827,2.934q.005,4.526,0,9.052c0,.251,0,.5,0,.789Zm7.279-22.153c.167-.016.308-.021.445-.045a3.2,3.2,0,0,0,.407-.1c2.125-.661,3.2-2.291,3.942-4.245a2.171,2.171,0,0,0-.151-2.411,1.859,1.859,0,0,1-.3-.628c-.19-.578-.5-.739-1.1-.5a7.606,7.606,0,0,1-4.208.328c-.918-.166-1.826-.4-2.749-.528-.313-.043-.869.069-.951.264a4.14,4.14,0,0,0-.457,1.938,7.557,7.557,0,0,0,1.889,4.221,4.679,4.679,0,0,0,3.237,1.708Zm5.775-8.977L62,7.069a23.092,23.092,0,0,0-.332-2.781c-.185-.783-.612-.888-1.412-.88a1.413,1.413,0,0,1-1.032-.514,1.952,1.952,0,0,0-2.1-.924c-2.311.4-4.617.831-7.086,1.279l-.274,3.592A3.021,3.021,0,0,1,52.8,6.114c.435.081.87.169,1.3.273a8.22,8.22,0,0,0,4.889-.109,2.067,2.067,0,0,1,2.8.9ZM52.8,19.109a4.351,4.351,0,0,0,6.428-.026l-1.021-1.443a5.248,5.248,0,0,1-4.366,0L52.8,19.109Z" transform="translate(-0.001 0)"/><path d="M167.787,216.308a11.65,11.65,0,0,1-1.83-.025,1.435,1.435,0,0,1-.991-.575,1.316,1.316,0,0,1,.226-1.128c1.87-2.248,3.782-4.462,5.7-6.673a.98.98,0,0,1,1.669.022c1.9,2.2,3.794,4.39,5.645,6.624a1.4,1.4,0,0,1,.234,1.182c-.11.279-.633.488-1,.55a11.363,11.363,0,0,1-1.778.023v.868q0,9.69,0,19.379c0,1.355-.25,1.61-1.58,1.61h-4.913c-1.075,0-1.374-.3-1.374-1.372q0-9.76,0-19.52Zm5.9,19.873v-.9q0-9.646,0-19.292c0-1.428.112-1.549,1.52-1.67.034,0,.064-.052.138-.116l-3.64-4.248-3.689,4.311c1.637.214,1.733.324,1.733,1.871q0,9.611,0,19.222v.819Z" transform="translate(-133.99 -168.549)"/><path d="M126.225,278.98q0-4.072,0-8.144c0-1.125.283-1.4,1.415-1.4,1.731,0,3.462,0,5.193,0,.9,0,1.255.332,1.256,1.218q.013,8.319,0,16.638c0,.885-.362,1.225-1.25,1.229-1.754.008-3.509.005-5.263,0-1.032,0-1.348-.308-1.35-1.33C126.221,284.456,126.225,281.718,126.225,278.98Zm2.028-7.555v15.087h3.817V271.425Z" transform="translate(-102.553 -218.908)"/><path d="M80.055,302.506c0,1.894,0,3.789,0,5.683,0,1.111-.3,1.4-1.424,1.4q-2.56,0-5.119,0c-.984,0-1.324-.322-1.326-1.29q-.011-5.823,0-11.646c0-.993.305-1.282,1.319-1.286q2.63-.01,5.26,0c1,0,1.285.3,1.29,1.313C80.061,298.624,80.055,300.565,80.055,302.506Zm-2.01-5.137h-3.84v10.216h3.84Z" transform="translate(-58.644 -239.976)"/><path d="M26.026,329.044c0,1.051.012,2.1,0,3.154-.012.808-.356,1.159-1.154,1.165q-2.768.019-5.535,0a1.02,1.02,0,0,1-1.169-1.163q-.024-3.224,0-6.449c.007-.77.363-1.109,1.132-1.115q2.8-.02,5.605,0c.781.006,1.106.332,1.119,1.113C26.039,326.847,26.026,327.946,26.026,329.044Zm-2.02,2.324v-4.729H20.166v4.729Z" transform="translate(-14.748 -263.751)"/><path d="M44.921,27.457c-1.726-1.819-3.789-2-5.4-.546a3.154,3.154,0,0,0-.841,3.763,22.435,22.435,0,0,0,5.913,8.252,1.078,1.078,0,0,1,.344.693,21.936,21.936,0,0,1,.006,2.245A1.859,1.859,0,0,1,42.922,43.8q-15.189.009-30.378,0a1.875,1.875,0,0,1-2.061-2.042q-.01-10.6,0-21.2a1.862,1.862,0,0,1,2-2.033q15.224-.011,30.448,0A1.753,1.753,0,0,1,44.9,20.2C44.964,22.581,44.921,24.961,44.921,27.457Zm-20.191,2.3,8.7,0a2.747,2.747,0,0,0,.7-.045A.968.968,0,0,0,34,27.8a4.34,4.34,0,0,0-.561-.012H15.905a5.192,5.192,0,0,0-.561.011.968.968,0,0,0-.149,1.9,2.73,2.73,0,0,0,.7.05Q20.31,29.755,24.73,29.753Zm-1.989,4.8,7.08,0c.772,0,1.205-.346,1.22-.947.015-.627-.44-1.014-1.239-1.015q-7.045-.007-14.091,0c-.8,0-1.268.385-1.263,1s.468.963,1.282.964Q19.236,34.553,22.741,34.549Zm-1.381-9.622c1.867,0,3.735.006,5.6,0,.793,0,1.2-.336,1.221-.946.02-.644-.395-1-1.222-1.013-.91-.013-1.821,0-2.731,0H16.177c-.21,0-.421-.007-.63.006-.663.039-1.077.4-1.1.943a1,1,0,0,0,1.1,1.009C17.486,24.936,19.423,24.925,21.361,24.927Zm-.035,14.448H26.52a6.147,6.147,0,0,0,.84-.033.873.873,0,0,0,.819-.9.892.892,0,0,0-.787-1,3.55,3.55,0,0,0-.7-.037q-5.37,0-10.739,0c-.256,0-.583-.06-.752.07a1.824,1.824,0,0,0-.719.9.819.819,0,0,0,.74.945,3.615,3.615,0,0,0,.7.045q2.7.005,5.4,0Z" transform="translate(-8.513 -15.053)" fill="#fff"/><path d="M254.033,215.252h14.637L270,242.481H264.75l-.452-4.649c-.376-3.911-.745-7.822-1.132-11.732a1.8,1.8,0,0,0-1.845-1.662,1.824,1.824,0,0,0-1.776,1.749c-.207,2.047-.389,4.1-.585,6.146-.324,3.375-.651,6.75-.98,10.163h-5.249C253.165,233.436,253.6,224.385,254.033,215.252Z" transform="translate(-205.339 -174.887)" fill="#fff"/><path d="M312.4,131.23c-.069-1.676-.187-3.375-.2-5.075-.031-3.743-.009-7.487-.012-11.23a3.043,3.043,0,0,0-.052-.766.965.965,0,0,0-1.9.15,6.006,6.006,0,0,0-.012.631q0,4.878,0,9.756v.793h-6.257c-.014-.243-.035-.447-.036-.652,0-4.866,0-9.733-.012-14.6,0-.472.1-.687.6-.8a6.075,6.075,0,0,0,3.1-1.818.871.871,0,0,1,1.035-.267c1.473.449,2.963.842,4.433,1.3a3.272,3.272,0,0,1,2.472,3.413c-.006,4.256-.019,8.511-.062,12.767-.014,1.356-.138,2.71-.2,4.065a2.511,2.511,0,0,1-2.9,2.334Z" transform="translate(-246.927 -87.166)" fill="#ffb200"/><path d="M186.7,93.95v-.789q0-4.526,0-9.052c0-1.862-.92-2.8-2.827-2.934a14.631,14.631,0,0,1-9.275-3.806,21.246,21.246,0,0,1-4.65-6.863,1.325,1.325,0,0,1,.727-1.805,1.422,1.422,0,0,1,1.97.436c.689,1.028,1.317,2.1,2.064,3.085a10.607,10.607,0,0,0,10.231,4.246,32.452,32.452,0,0,0,3.437-.645.825.825,0,0,1,.915.241,6.915,6.915,0,0,0,3.691,2.007V93.95Z" transform="translate(-137.967 -55.642)" fill="#ffb200"/><path d="M276.427,50.88a4.679,4.679,0,0,1-3.237-1.708A7.557,7.557,0,0,1,271.3,44.95a4.14,4.14,0,0,1,.457-1.938c.083-.195.638-.307.951-.264.923.125,1.83.362,2.749.528a7.606,7.606,0,0,0,4.208-.328c.6-.237.913-.076,1.1.5a1.859,1.859,0,0,0,.3.628,2.171,2.171,0,0,1,.151,2.411c-.737,1.954-1.818,3.584-3.942,4.245a3.2,3.2,0,0,1-.407.1C276.735,50.858,276.594,50.864,276.427,50.88Z" transform="translate(-220.416 -34.725)" fill="#fff"/><path d="M277.367,15.547a2.067,2.067,0,0,0-2.8-.9,8.22,8.22,0,0,1-4.889.109c-.43-.1-.865-.192-1.3-.273a3.021,3.021,0,0,0-3.037.727l.274-3.592c2.469-.448,4.775-.88,7.086-1.279a1.952,1.952,0,0,1,2.1.924,1.413,1.413,0,0,0,1.032.514c.8-.008,1.227.1,1.412.88a23.087,23.087,0,0,1,.332,2.781Z" transform="translate(-215.58 -8.369)" fill="#fff"/><path d="M281.566,95.531l1.041-1.47a5.248,5.248,0,0,0,4.366,0l1.021,1.443A4.351,4.351,0,0,1,281.566,95.531Z" transform="translate(-228.765 -76.422)" fill="#fff"/><path d="M187.142,247.04H183.2v-.819q0-9.611,0-19.222c0-1.546-.1-1.657-1.733-1.871l3.689-4.311,3.64,4.248c-.074.064-.1.113-.138.116-1.408.122-1.52.243-1.52,1.67q0,9.646,0,19.292Z" transform="translate(-147.441 -179.408)" fill="#fff"/><path d="M137.044,280.056h3.817v15.087h-3.817Z" transform="translate(-111.345 -227.538)" fill="#ffb200"/><path d="M86.826,306.052v10.216h-3.84V306.052Z" transform="translate(-67.424 -248.66)" fill="#ffb200"/><path d="M32.731,340.089H28.891V335.36h3.841Z" transform="translate(-23.473 -272.471)" fill="#ffb200"/><path d="M41.979,69.854l-8.839,0a2.73,2.73,0,0,1-.7-.05.968.968,0,0,1,.149-1.9,5.2,5.2,0,0,1,.561-.011H50.692a4.342,4.342,0,0,1,.561.012.968.968,0,0,1,.121,1.906,2.747,2.747,0,0,1-.7.045Q46.329,69.856,41.979,69.854Z" transform="translate(-25.763 -55.154)"/><path d="M39.945,95.445h-7.01c-.814,0-1.277-.355-1.282-.964s.464-1,1.263-1q7.045-.006,14.091,0c.8,0,1.254.388,1.239,1.015-.015.6-.447.945-1.22.947Q43.485,95.45,39.945,95.445Z" transform="translate(-25.717 -75.948)"/><path d="M38.56,44.123c-1.937,0-3.875.01-5.812-.007a1,1,0,0,1-1.1-1.009c.021-.545.435-.9,1.1-.943.209-.012.42-.006.63-.006h8.053c.91,0,1.821-.009,2.731,0,.828.012,1.243.368,1.222,1.013-.019.611-.428.942-1.221.946C42.294,44.129,40.427,44.123,38.56,44.123Z" transform="translate(-25.713 -34.25)"/><path d="M38.608,121.128l-5.4,0a3.616,3.616,0,0,1-.7-.045.819.819,0,0,1-.74-.945,1.824,1.824,0,0,1,.719-.9c.169-.13.5-.07.752-.07q5.37,0,10.739,0a3.55,3.55,0,0,1,.7.037.892.892,0,0,1,.787,1,.873.873,0,0,1-.819.9,6.146,6.146,0,0,1-.84.033Q41.2,121.131,38.608,121.128Z" transform="translate(-25.795 -96.807)"/></g></g></g></svg>