<svg xmlns="http://www.w3.org/2000/svg" xmlns:xlink="http://www.w3.org/1999/xlink" width="90" height="90" viewBox="0 0 90 90"><defs><clipPath id="b"><rect width="90" height="90"/></clipPath></defs><g id="a" clip-path="url(#b)"><rect width="72" height="72" rx="36" transform="translate(0 18)" fill="#eaeaea"/><g transform="translate(10 15)"><g transform="translate(0 0)"><path d="M70.748,35.362a7.754,7.754,0,0,1-1.457,1.053c-2.48,1.038-4.983,2.02-7.491,2.989a.931.931,0,0,0-.717,1.03c.026,6.146.016,12.292.016,18.439,0,1.522-.394,1.913-1.924,1.913H1.925c-1.5,0-1.907-.411-1.907-1.939C.018,47.268.031,35.689,0,24.11c0-1.393.243-2.022,1.861-2.668Q19.243,14.5,36.636,7.6,45.795,3.951,54.949.3C56.4-.283,56.925-.058,57.5,1.381Q64,17.713,70.507,34.045c.067.168.16.326.24.488ZM2.841,24.733V57.982H58.286V24.733Zm64.716,9.4L55.229,3.181l-46.7,18.6c2.631.149,5.208.154,7.786.139a1.307,1.307,0,0,0,.6-.224,8.529,8.529,0,0,1,1.024-.657q6.2-2.5,12.418-4.96,7.911-3.142,15.83-6.267a1.369,1.369,0,0,1,1.836.463,8.221,8.221,0,0,0,6.947,3.013A1.408,1.408,0,0,1,56.632,14.3c.96,2.338,1.885,4.689,2.842,7.029a1.128,1.128,0,0,0,.473.6c.949.405,1.15.654,1.151,1.7q0,6.111,0,12.223v.85ZM23.545,21.785l.033.1H56.693c-.695-1.752-1.379-3.428-2.019-5.121a.951.951,0,0,0-.978-.733,10.47,10.47,0,0,1-6.812-2.956.852.852,0,0,0-1.078-.179q-9.119,3.656-18.25,7.281Q25.55,20.98,23.545,21.785Z" transform="translate(0 0)"/><path d="M12.252,106.678H67.7v33.249H12.252Zm27.739,30.5v0l16.779,0c1.032,0,1.345-.232,1.672-1.189a8.155,8.155,0,0,1,5.3-5.318,1.46,1.46,0,0,0,1.208-1.683q.021-5.662,0-11.324c0-1.085-.262-1.376-1.3-1.753a8.188,8.188,0,0,1-5.052-4.865c-.6-1.531-.7-1.619-2.366-1.619q-9.184,0-18.368,0-7.354,0-14.708.018c-1,0-1.336.273-1.668,1.223a8.175,8.175,0,0,1-5.267,5.264c-.921.324-1.207.633-1.213,1.6-.021,3.866-.007,7.732-.008,11.6a1.481,1.481,0,0,0,1.149,1.52,8.183,8.183,0,0,1,5.365,5.34,1.422,1.422,0,0,0,1.627,1.178Q31.567,137.181,39.991,137.173Z" transform="translate(-9.412 -81.945)" fill="#fff"/><path d="M95.8,44.672l-6.458,2.573V46.4q0-6.111,0-12.223c0-1.051-.2-1.3-1.151-1.7a1.128,1.128,0,0,1-.473-.6c-.956-2.339-1.882-4.691-2.842-7.029A1.408,1.408,0,0,0,83.2,23.824a8.221,8.221,0,0,1-6.947-3.013,1.369,1.369,0,0,0-1.836-.463q-7.92,3.12-15.83,6.267-6.214,2.468-12.418,4.96a8.529,8.529,0,0,0-1.024.657,1.307,1.307,0,0,1-.6.224c-2.577.015-5.155.01-7.786-.139l46.7-18.6Z" transform="translate(-28.242 -10.539)" fill="#ffb200"/><path d="M101.554,64.148l4.012-1.606q9.126-3.637,18.25-7.281a.852.852,0,0,1,1.078.179,10.47,10.47,0,0,0,6.812,2.956.951.951,0,0,1,.978.733c.64,1.693,1.324,3.37,2.019,5.121H101.587Z" transform="translate(-78.009 -42.362)" fill="#fff"/><path d="M49.088,146.262q-8.424,0-16.848,0a1.422,1.422,0,0,1-1.627-1.178,8.184,8.184,0,0,0-5.365-5.34,1.481,1.481,0,0,1-1.149-1.52c0-3.866-.013-7.732.008-11.6.005-.971.292-1.28,1.213-1.6a8.215,8.215,0,0,0,5.267-5.264c.333-.951.67-1.22,1.668-1.223q7.354-.022,14.708-.018,9.184,0,18.368,0c1.662,0,1.762.088,2.366,1.619A8.188,8.188,0,0,0,72.748,125c1.037.377,1.295.668,1.3,1.753q.021,5.662,0,11.324a1.46,1.46,0,0,1-1.208,1.683,8.173,8.173,0,0,0-5.3,5.318c-.327.957-.64,1.188-1.672,1.189q-8.39.006-16.779,0Zm.007-24.978-15.467,0c-.372,0-.665-.013-.869.444a10.681,10.681,0,0,1-5.422,5.455.723.723,0,0,0-.5.768q.027,4.419,0,8.838a.771.771,0,0,0,.532.822,10.694,10.694,0,0,1,5.352,5.345.855.855,0,0,0,.941.562q15.433-.014,30.866,0a.8.8,0,0,0,.881-.536,10.675,10.675,0,0,1,5.4-5.382.714.714,0,0,0,.488-.773q-.023-4.419,0-8.838a.753.753,0,0,0-.514-.823,10.545,10.545,0,0,1-5.324-5.274.939.939,0,0,0-1.039-.616c-5.11.016-10.22.01-15.33.01Z" transform="translate(-18.509 -91.035)"/><path d="M58.16,130.446c5.11,0,10.22.006,15.329-.01a.939.939,0,0,1,1.039.616,10.546,10.546,0,0,0,5.324,5.274.753.753,0,0,1,.514.823q-.026,4.419,0,8.838a.714.714,0,0,1-.488.772,10.675,10.675,0,0,0-5.4,5.382.8.8,0,0,1-.881.536q-15.433-.016-30.866,0a.855.855,0,0,1-.941-.562,10.694,10.694,0,0,0-5.352-5.345.771.771,0,0,1-.532-.822q.028-4.419,0-8.838a.723.723,0,0,1,.5-.768,10.68,10.68,0,0,0,5.422-5.455c.2-.458.5-.445.869-.444Q50.426,130.448,58.16,130.446Zm8.3,11.13A8.331,8.331,0,1,0,64,147.465a8.318,8.318,0,0,0,2.458-5.89Zm-21.5-.014a2.13,2.13,0,0,0-2.053-2.1A2.1,2.1,0,0,0,40.79,141.5a2.08,2.08,0,1,0,4.16.065Zm26.393-.038a2.058,2.058,0,0,0,2.029,2.094,2.091,2.091,0,0,0,2.127-2.083,2.134,2.134,0,0,0-2.082-2.074,2.083,2.083,0,0,0-2.073,2.063Z" transform="translate(-27.574 -100.195)" fill="#ffb200"/><path d="M112.585,150.782a8.318,8.318,0,1,1-8.238-8.361A8.318,8.318,0,0,1,112.585,150.782Zm-2.781-.061a5.544,5.544,0,1,0-1.607,3.946,5.541,5.541,0,0,0,1.607-3.946Z" transform="translate(-73.703 -109.401)"/><path d="M61.166,171.466a2.08,2.08,0,1,1-2.053-2.1A2.13,2.13,0,0,1,61.166,171.466Zm-2.237.759.315.008c.172-.27.493-.553.472-.807a.941.941,0,0,0-.634-.629.553.553,0,0,0-.652.676c.049.272.325.5.5.752Z" transform="translate(-43.789 -130.1)"/><path d="M188.793,171.428a2.083,2.083,0,0,1,2.073-2.063,2.134,2.134,0,0,1,2.082,2.074,2.091,2.091,0,0,1-2.127,2.083,2.058,2.058,0,0,1-2.029-2.094Zm2.254-.76-.3-.01c-.185.245-.47.467-.532.74a.537.537,0,0,0,.619.695.948.948,0,0,0,.668-.592c.025-.261-.288-.555-.455-.834Z" transform="translate(-145.022 -130.099)"/><path d="M118.99,159.917a5.541,5.541,0,1,1-5.535-5.525,5.541,5.541,0,0,1,5.535,5.525Z" transform="translate(-82.89 -118.597)" fill="#fff"/><path d="M63.592,176.928c-.174-.249-.451-.48-.5-.752a.553.553,0,0,1,.652-.676.941.941,0,0,1,.634.629c.021.254-.3.536-.472.807Z" transform="translate(-48.452 -134.802)" fill="#fff"/><path d="M195.666,174.954c.166.279.48.573.455.834a.948.948,0,0,1-.668.592.537.537,0,0,1-.619-.695c.062-.273.347-.5.532-.74Z" transform="translate(-149.642 -134.385)" fill="#fff"/></g></g></g></svg>