<svg xmlns="http://www.w3.org/2000/svg" xmlns:xlink="http://www.w3.org/1999/xlink" width="90" height="90" viewBox="0 0 90 90"><defs><clipPath id="b"><rect width="90" height="90"/></clipPath></defs><g id="a" clip-path="url(#b)"><rect width="72" height="72" rx="36" transform="translate(0 18)" fill="#eaeaea"/><g transform="translate(6.002 9.243)"><g transform="translate(3.998 0.757)"><g transform="translate(0 0)"><path d="M0,341.7a1.521,1.521,0,0,1,1.46-.7c2.026.024,4.053,0,6.079,0a1.031,1.031,0,0,0,.21-.071v-.774q0-10.95,0-21.9c0-1.335.272-1.6,1.626-1.6q5.009,0,10.017,0c1.225,0,1.5.279,1.5,1.5q0,10.985,0,21.969v.849h7.9v-.857q0-13.541,0-27.082c0-.207-.006-.415,0-.622.036-.942.37-1.287,1.312-1.3,1.289-.015,2.579,0,3.869,0h6.149c1.665,0,1.842.181,1.842,1.879q0,13.506,0,27.013v.952h7.9v-.855q0-19.724,0-39.448c0-1.525.223-1.746,1.763-1.746h9.6c1.535,0,1.78.241,1.78,1.748q0,19.689,0,39.379V341h2.02c1.428,0,2.856.007,4.283,0,.584,0,1.121.058,1.362.7s-.162,1.029-.608,1.383H0Zm60.917-40.67H51.988v39.919h8.928ZM39.844,340.97V313.226H30.913V340.97Zm-21.065,0v-22.2H9.863v22.2Z" transform="translate(0 -272.33)"/><path d="M68.718,7.542a8.879,8.879,0,0,1-1.49-.013,3.183,3.183,0,0,1-2.643-3.3,3.257,3.257,0,0,1,2.892-3.112C70.4.727,73.318.351,76.245.024a3.245,3.245,0,0,1,3.682,3.357c.023,2.855.017,5.711,0,8.567a3.252,3.252,0,0,1-6.44.772c-.028-.109-.05-.219-.116-.509-.226.289-.369.494-.534.68a82.5,82.5,0,0,1-10.672,10,2.689,2.689,0,0,1-.567.387.955.955,0,0,1-1.237-.291.966.966,0,0,1,.026-1.272,3.134,3.134,0,0,1,.508-.464A82.038,82.038,0,0,0,73.115,9.388c.177-.212.327-.5.557-.6a1.86,1.86,0,0,1,1.173-.263,1.3,1.3,0,0,1,.628.944,20.9,20.9,0,0,1,.034,2.345c.008.934.45,1.467,1.195,1.453.709-.014,1.15-.543,1.153-1.433q.011-4.145,0-8.29c0-1.05-.563-1.565-1.555-1.441q-4.213.524-8.422,1.076c-.282.037-.674.134-.79.334a2.047,2.047,0,0,0-.327,1.233.984.984,0,0,0,1.156.765c.962-.088,1.92-.216,2.877-.348.594-.082,1.166-.135,1.517.492.338.6,0,1.035-.369,1.482a79.232,79.232,0,0,1-30.8,22.962,81.265,81.265,0,0,1-18.208,5.4c-2.242.383-4.514.588-6.772.875-.16.02-.321.035-.479.064a1.19,1.19,0,0,0-1.089,1.27,1.147,1.147,0,0,0,1.318,1.035c1.7-.143,3.4-.264,5.08-.519a86.807,86.807,0,0,0,30.437-10.6c1.416-.813,2.783-1.71,4.171-2.57.2-.121.383-.256.58-.374a1.1,1.1,0,0,1,1.593.191,1.047,1.047,0,0,1-.438,1.527q-1.084.738-2.2,1.43A88.9,88.9,0,0,1,26.882,39.245,69,69,0,0,1,16.1,40.818a3.264,3.264,0,0,1-3.563-2.752,3.189,3.189,0,0,1,2.341-3.588,20.9,20.9,0,0,1,2.67-.306,77.58,77.58,0,0,0,17.583-4A77.944,77.944,0,0,0,68.406,8.089c.091-.1.18-.21.262-.32C68.691,7.738,68.687,7.688,68.718,7.542Z" transform="translate(-11.389 0)"/><path d="M593.863,322.861V362.78h-8.928V322.861Z" transform="translate(-532.946 -294.166)" fill="#fff"/><path d="M356.736,487.874h-8.931V460.13h8.931Z" transform="translate(-316.893 -419.234)" fill="#ffb300"/><path d="M119.892,544.7h-8.915V522.5h8.915Z" transform="translate(-101.113 -476.061)" fill="#ffb300"/></g></g></g></g></svg>