<svg xmlns="http://www.w3.org/2000/svg" xmlns:xlink="http://www.w3.org/1999/xlink" width="68" height="71" viewBox="0 0 68 71"><defs><clipPath id="a"><rect width="65" height="62.887" fill="#ffb200"/></clipPath><clipPath id="c"><rect width="68" height="71"/></clipPath></defs><g id="b" clip-path="url(#c)"><g transform="matrix(0.966, -0.259, 0.259, 0.966, -6, 10.823)"><g clip-path="url(#a)"><path d="M153.957,28.686v2.031c-.069.283-.154.563-.206.849-1.417,7.793-2.916,15.572-4.215,23.385a9.13,9.13,0,0,1-9.362,7.935c-8.2-.119-16.411-.022-24.617-.05a10.725,10.725,0,0,1-2.875-.363,8.6,8.6,0,0,1-6.233-8.5q-.019-13.7,0-27.409c0-.106,0-.212,0-.317a1.743,1.743,0,0,1,1.3-1.744c.4-.134.809-.244,1.21-.376a19,19,0,0,0,8.628-5.336,16.165,16.165,0,0,0,3.874-9.844c.13-1.769.108-3.552.278-5.316.2-2.1,1.276-3.3,3.086-3.567a6.436,6.436,0,0,1,1.768.006,8.928,8.928,0,0,1,6.837,4.8c2.16,3.795,2.566,7.91,2.178,12.155-.119,1.3-.379,2.584-.582,3.928h.684c3.215,0,6.43-.019,9.644.009a8.642,8.642,0,0,1,8.123,5.9c.2.6.323,1.219.481,1.829" transform="translate(-88.957 0)" fill="#ffb200"/><path d="M13.981,148.513c0,4.652.02,9.3-.006,13.957a6.974,6.974,0,0,1-13.94.3c-.063-2.24-.019-4.483-.019-6.724,0-7.148-.013-14.3,0-21.443a6.974,6.974,0,0,1,13.944-.3c.049,4.736.012,9.474.012,14.211Z" transform="translate(0 -106.582)" fill="#ffb200"/></g></g></g></svg>